<?xml version="1.0" encoding="utf-8"?>
<!-- Generator: Adobe Illustrator 23.1.0, SVG Export Plug-In . SVG Version: 6.00 Build 0)  -->
<svg version="1.1" id="Calque_1" xmlns="http://www.w3.org/2000/svg" xmlns:xlink="http://www.w3.org/1999/xlink" x="0px" y="0px"
	 width="420.7px" height="397px" viewBox="0 0 420.7 397" style="enable-background:new 0 0 420.7 397;" xml:space="preserve">
<style type="text/css">
	.st0{fill:#FFFFFF;}
</style>
<polygon class="st0" points="153,370.1 152.8,370.1 151.5,375.1 154.4,375.1 "/>
<path class="st0" d="M118.1,373.6c0.2-0.1,0.4-0.3,0.5-0.6c0.1-0.3,0.2-0.7,0.2-1.3c0-1.7-0.4-2.5-1.2-2.5l-1.7,0.2v4.3h1.2
	C117.5,373.7,117.8,373.7,118.1,373.6z"/>
<path class="st0" d="M290.8,373.6c0.2-0.1,0.4-0.3,0.5-0.6c0.1-0.3,0.2-0.7,0.2-1.3c0-1.7-0.4-2.5-1.2-2.5l-1.7,0.2v4.3h1.2
	C290.2,373.7,290.5,373.7,290.8,373.6z"/>
<polygon class="st0" points="19.3,348.2 19.3,353.7 47.9,353.7 47.9,348.2 41.2,346.3 41.2,314.4 47.1,315.1 48.1,323.7 55.1,323.7 
	56.1,307.2 11.1,307.2 12.1,323.7 19.1,323.7 20.1,315.1 26,314.4 26,346.3 "/>
<path class="st0" d="M20.1,386.5h388.4V364H20.1V386.5z M349.9,379.5l1.4-0.5v-9.7l-1.4-0.5v-1.2h10.4l-0.3,4.1h-1.7l-0.3-2.5
	l-3.4,0.3v3.6l3.1,0.1v1.6l-3.1,0.1v4l3.6,0.3l0.4-2.6h1.7l0.1,4.1h-10.5L349.9,379.5L349.9,379.5z M319.6,367.6h6.3l0,0h0.1v1.2
	l-1.5,0.5v9.6l1.5,0.5v1.3h-6.3v-1.2l1.4-0.5v-9.7l-1.5-0.5V367.6z M283.8,379.5l1.4-0.5v-9.7l-1.4-0.5v-1.2h7.4
	c1.2,0,2.1,0.3,2.6,0.8c0.6,0.5,0.9,1.5,0.9,2.8c0,1-0.2,1.8-0.6,2.4c-0.4,0.7-0.9,1.1-1.6,1.4l1.6,2.6l0.9,1.4l1.3,0.5v1.3h-4.1
	l-2.5-5.3h-1.1v3.4l1.4,0.5v1.3h-6.2L283.8,379.5L283.8,379.5z M249.4,379.5l1.4-0.5v-9.7l-1.4-0.5v-1.2h10.4l-0.3,4.1h-1.7
	l-0.3-2.5l-3.4,0.3v3.6l3.1,0.1v1.6l-3.1,0.1v4l3.6,0.3l0.4-2.6h1.7l0.1,4.1h-10.5L249.4,379.5L249.4,379.5z M216.6,370.3
	c0.2-0.4,0.5-0.7,1.1-1.2s1.2-0.9,1.8-1.2c0.6-0.3,1-0.5,1.3-0.5s0.9,0,1.8,0.1c0.9,0.1,1.8,0.2,2.6,0.3l-0.2,3.9h-1.7l-0.3-2.1
	c-1.6-0.3-2.5-0.4-2.9-0.4c-0.1,0-0.2,0.1-0.3,0.3c-0.1,0.2-0.1,0.5-0.1,0.8c0,0.6,0.2,1,0.6,1.4c0.4,0.4,0.9,0.8,1.6,1.2l0.5,0.3
	c0.8,0.4,1.4,0.8,1.8,1.1c0.4,0.4,0.8,0.7,1.1,1.2c0.3,0.4,0.5,1,0.5,1.6c0,0.4,0,0.8-0.1,1.1c-0.2,0.4-0.5,0.9-1.1,1.3
	s-1.1,0.8-1.7,1.1c-0.6,0.3-1.1,0.5-1.4,0.5c-0.8,0-2.1-0.1-3.8-0.2l-1.2-0.1l0.2-4.2h1.6l0.4,2.3c1.6,0.2,2.6,0.3,3.1,0.3
	c0.1,0,0.3-0.1,0.4-0.4c0.1-0.3,0.2-0.6,0.2-0.8c0-0.5-0.2-1-0.6-1.3c-0.4-0.3-1-0.7-1.8-1.2c-0.8-0.4-1.3-0.8-1.8-1.1
	c-0.5-0.3-0.9-0.7-1.2-1.2s-0.5-1.1-0.5-1.8C216.5,371,216.5,370.6,216.6,370.3z M183.7,370.3c0.2-0.4,0.5-0.7,1.1-1.2
	s1.2-0.9,1.8-1.2c0.6-0.3,1-0.5,1.3-0.5s0.9,0,1.8,0.1c0.9,0.1,1.8,0.2,2.6,0.3l-0.2,3.9h-1.7l-0.3-2.1c-1.6-0.3-2.5-0.4-2.9-0.4
	c-0.1,0-0.2,0.1-0.3,0.3c-0.1,0.2-0.1,0.5-0.1,0.8c0,0.6,0.2,1,0.6,1.4c0.4,0.4,0.9,0.8,1.6,1.2l0.5,0.3c0.8,0.4,1.4,0.8,1.8,1.1
	c0.4,0.4,0.8,0.7,1.1,1.2c0.3,0.4,0.5,1,0.5,1.6c0,0.4,0,0.8-0.1,1.1c-0.2,0.4-0.5,0.9-1.1,1.3s-1.1,0.8-1.7,1.1s-1.1,0.5-1.4,0.5
	c-0.8,0-2.1-0.1-3.8-0.2l-1.2-0.1l0.2-4.2h1.6l0.4,2.3c1.6,0.2,2.6,0.3,3.1,0.3c0.1,0,0.2-0.1,0.4-0.4c0.1-0.3,0.2-0.6,0.2-0.8
	c0-0.5-0.2-1-0.6-1.3s-1-0.7-1.8-1.2c-0.8-0.4-1.3-0.8-1.8-1.1c-0.5-0.3-0.9-0.7-1.2-1.2s-0.5-1.1-0.5-1.8
	C183.6,371,183.6,370.6,183.7,370.3z M146.2,379.6l1.4-0.4l3.7-11.4c0.6-0.1,1.3-0.1,2-0.2c0.7,0,1.2-0.1,1.5-0.1
	c0.1,0,0.2,0,0.5,0.2l3.8,11.5l1.4,0.4v1.2h-6.6v-1.4l1.5-0.4l-0.6-2.2H151l-0.5,2.2l1.6,0.4v1.4h-5.9L146.2,379.6L146.2,379.6z
	 M111.1,379.5l1.4-0.5v-9.7l-1.4-0.5v-1.2h7.4c1.3,0,2.2,0.3,2.7,0.8c0.6,0.5,0.9,1.5,0.9,2.8c0,1-0.2,1.8-0.6,2.4
	c-0.4,0.7-0.9,1.1-1.6,1.4l1.6,2.6l0.9,1.4l1.2,0.5v1.3h-4.1l-2.5-5.3h-1.1v3.4l1.4,0.5v1.3h-6.2
	C111.1,380.7,111.1,379.5,111.1,379.5z M75.9,379.5l1.4-0.5v-9.7l-1.4-0.5v-1.2h7.3c1.2,0,2.1,0.3,2.6,0.7c0.6,0.5,0.9,1.4,0.9,2.6
	c0,0.6-0.2,1.1-0.4,1.5c-0.2,0.3-0.4,0.6-0.7,0.8c-0.3,0.2-0.6,0.4-1,0.6v0.1c0.8,0.1,1.5,0.5,2,1s0.8,1.2,0.8,2
	c0,1.4-0.4,2.3-1.1,2.9s-1.7,0.9-3,0.9h-7.4C75.9,380.7,75.9,379.5,75.9,379.5z"/>
<path class="st0" d="M391.8,307.1v6.1l5.5,1.9v2.4l0.7,17.1h-0.8c-1.1-3.7-2.3-6.9-3.8-9.6l-9.9-17.9h-21.1v5.5l4.8,1.9v31.7
	l-4.8,1.9v5.5h21.2v-6.1l-5.5-1.9v-2.7l-0.7-16.7h0.8c1.2,4.3,3,8.5,5.5,12.7l8.5,14.6c1.1,0.7,1.7,1,1.9,1c0.5,0,5.2-0.4,14.1-1.4
	v-38.6l4.8-1.9v-5.5H391.8z"/>
<path class="st0" d="M83,373c0.2-0.3,0.4-0.8,0.4-1.5c0-0.8-0.1-1.4-0.2-1.8s-0.4-0.5-0.8-0.5l-1.7,0.2v4h1.1
	C82.4,373.4,82.8,373.3,83,373z"/>
<path class="st0" d="M83.6,378.8c0.2-0.4,0.3-1.1,0.3-2c0-0.5-0.1-0.9-0.2-1.1c-0.1-0.3-0.3-0.4-0.5-0.5s-0.5-0.1-0.9-0.1v0.1h-1.8
	v3.9l2.1,0.2C83.1,379.4,83.4,379.2,83.6,378.8z"/>
<path class="st0" d="M330.7,338.9l8.5,14.6c1.1,0.7,1.7,1,1.9,1c0.5,0,5.2-0.4,14.1-1.4v-38.6l4.8-1.9v-5.5h-21.2v6.1l5.5,1.9v2.4
	l0.7,17.1h-0.8c-1.1-3.7-2.3-6.9-3.8-9.6l-9.9-17.9h-21.1v5.5l4.8,1.9v31.7l-4.8,1.9v5.5h21.2v-6.1l-5.5-1.9v-2.7l-0.7-16.7h0.8
	C326.4,330.5,328.2,334.7,330.7,338.9z"/>
<g>
	<g>
		<path class="st0" d="M225.3,181.8l0.4,1.8l0.1-0.1c-0.1-0.6-0.3-1.3-0.4-1.8c0-0.1,0-0.2-0.1-0.3l-0.1,0.1L225.3,181.8z"/>
		<path class="st0" d="M253.4,167.6L253.4,167.6l-3.6-1.1l-24,17c0.2,1,0.5,2,0.7,3.1L253.4,167.6z"/>
		<path class="st0" d="M241.7,163.8L241.7,163.8c-1.1-0.4-2.2-0.8-3.4-1.2L223.5,173l0.2,1.3l0.5,1.9L241.7,163.8L241.7,163.8z"/>
		<path class="st0" d="M241.7,163.8l2.3,0.8C243.3,164.3,242.5,164.1,241.7,163.8z"/>
		<path class="st0" d="M300.1,92.3c-0.5-0.8-1.1-1.6-1.7-2.4l-69.2,49l0.7,0.9c1.2-0.1,2.5-0.3,3.9-0.5L300.1,92.3z"/>
		<path class="st0" d="M302.9,96.5c-0.5-0.8-1-1.7-1.5-2.5l-63,44.5c2.1-0.4,4.3-0.8,6.9-1.3L302.9,96.5z"/>
		<polygon class="st0" points="255.8,168.3 255.8,168.3 253.5,167.6 253.4,167.6 255.7,168.3 		"/>
		<polygon class="st0" points="227.5,190.9 227.7,191.8 259.3,169.4 255.8,168.3 227,188.7 		"/>
		<path class="st0" d="M238,76.2L238,76.2v0.2C238,76.3,238,76.3,238,76.2L238,76.2z"/>
		<path class="st0" d="M263.4,152.3c-0.1,0-0.3,0-0.3,0l0.1,0.1l0.4-0.1C263.5,152.3,263.5,152.3,263.4,152.3z"/>
		<path class="st0" d="M273.5,153.9c-0.2,0.4-0.4,0.8-0.6,1.2c0.2-0.2,0.3-0.5,0.5-0.7c0.1-0.2,0.2-0.4,0.3-0.6
			C273.6,153.8,273.5,153.8,273.5,153.9z"/>
		<path class="st0" d="M289.3,174.8l-2.6-0.2C287.5,174.7,288.4,174.7,289.3,174.8z"/>
		<path class="st0" d="M224.7,178.3c0.2,1,0.4,2,0.6,3.1l22.1-15.6c-1.1-0.4-2.3-0.8-3.4-1.2L224.7,178.3z"/>
		<path class="st0" d="M258.9,163.7c0.1,0.2,0.2,0.3,0.3,0.4c0.1,0,0.1-0.1,0.1-0.1c0.2-0.2,0.3-0.5,0.5-0.7c0.6-0.9,1.3-1.7,2-2.6
			l0.7-0.8c0,0,0.1-0.1,0.2-0.2c0.9-1.4,1.7-2.7,2.5-4.1c-0.1,0.1-0.2,0.1-0.3,0.1c0,0,0,0-0.1,0c-0.2,0.1-0.4,0.1-0.6,0.2
			c0,0.1-0.1,0.2-0.2,0.3c-1.4,2.1-2.7,4.3-4.2,6.4C259.5,163,259.2,163.3,258.9,163.7z"/>
		<path class="st0" d="M246.6,149.3C246.5,149.2,246.5,149.3,246.6,149.3L246.6,149.3z"/>
		<path class="st0" d="M269.5,163.8c-0.4,0.9-0.9,1.8-1.4,2.7l-0.1,0.1c-0.5,0.7-1,1.3-1.6,1.9c0.4,0.2,0.9,0.3,1.3,0.5l0.1,0.1
			c0.3-0.2,0.4-0.2,0.6-0.1c0-0.8,0.3-1.6,0.6-2.3c0,0,0.2-0.5,0.4-0.9c0.1-0.2,0.2-0.5,0.2-0.5c1.1-1.9,2.3-3.7,3.6-5.6
			c0,0,0.4-0.6,0.7-1.1c0.9-1.3,1.7-2.6,2.4-4c0.2-0.4,0.4-0.7,0.6-1.1l-0.3,0.1c-0.1,0-0.2,0-0.2,0h-0.1c-0.2,0-0.4,0-0.6,0.1
			c-1.1,1.8-1.8,3.6-3,5.4C271.6,160.7,270.6,162.2,269.5,163.8z"/>
		<path class="st0" d="M237.2,84.3v-0.4C237.2,84,237.2,84.1,237.2,84.3L237.2,84.3z"/>
		<path class="st0" d="M237.9,66.6c0-0.5,0-0.9-0.1-1.4L237.9,66.6z"/>
		<path class="st0" d="M254.8,54.6L238,66.5c0.1,1.2,0.1,2.3,0.1,3.5l19.8-14l-1.2-0.6L254.8,54.6z"/>
		<path class="st0" d="M261.4,57.8l-1.4-0.7l-21.9,15.4c0,1.2-0.1,2.5-0.1,3.7l24.9-17.6L261.4,57.8z"/>
		<path class="st0" d="M236.2,89.8c-0.2,0.8-0.3,1.5-0.5,2.3L236.2,89.8z"/>
		<path class="st0" d="M236.3,89.2L272,64.1l-2-1.3l-0.7-0.4L237,85.2C236.8,86.6,236.6,87.8,236.3,89.2z"/>
		<path class="st0" d="M236.2,89.6L236.2,89.6l0.1-0.3v-0.1l0,0C236.3,89.3,236.2,89.5,236.2,89.6z"/>
		<path class="st0" d="M224,128.2l67.1-47.5c-0.7-0.7-1.3-1.4-2-2.2l-63.2,44.8C225.3,124.9,224.7,126.5,224,128.2z"/>
		<path class="st0" d="M309.9,121.6l3-2.1c-0.3-1-0.6-2-0.9-2.9l-10.1,7.1l-4.4,1.2l10-2.6L309.9,121.6z"/>
		<path class="st0" d="M250.1,136.1l-1.9,0.4L250.1,136.1z"/>
		<path class="st0" d="M311.3,114.5c-0.3-0.9-0.7-1.9-1-2.8l-21.8,15.4l7.9-2L311.3,114.5z"/>
		<path class="st0" d="M309.5,109.8c-0.4-0.9-0.8-1.8-1.2-2.7l-32.9,23.3l7.7-1.9L309.5,109.8z"/>
		<polygon class="st0" points="307.5,105.2 306.4,103 306.2,102.6 262.6,133.5 270.1,131.7 		"/>
		<polygon class="st0" points="257.4,134.6 305.2,100.7 304,98.5 303.8,98.1 250.1,136.1 252.8,135.5 		"/>
		<polygon class="st0" points="273.5,130.9 275.4,130.4 272,131.2 270.1,131.7 270.7,131.6 		"/>
		<path class="st0" d="M224.3,176.5l-0.1-0.3l0,0v0.4l0.3,1.3l0.1,0.5l0.1-0.1c0-0.2-0.1-0.4-0.1-0.5L224.3,176.5z"/>
		<path class="st0" d="M221.8,116.4c-0.2-0.2-0.3-0.3-0.5-0.5c-0.5-0.5-1-1-1.4-1.5C220.5,115.5,221.1,116.2,221.8,116.4z"/>
		<path class="st0" d="M212.1,179.8c-0.4-0.7-0.8-1.3-1.3-2c-0.1,0.1-0.1,0.1-0.2,0.2l2.3,3.3c-0.1-0.2-0.3-0.5-0.4-0.7
			C212.4,180.3,212.2,180.1,212.1,179.8z"/>
		<path class="st0" d="M238.3,141.2c-0.4,0.1-0.8,0.1-1.2,0.2c0.5,1.2,0.9,2.4,1.3,3.6c0.5,0.1,1.1,0.3,1.6,0.4
			c-0.1-0.2-0.2-0.4-0.2-0.6c0,0-0.2-0.5-0.3-0.9c0,0-0.2-0.6-0.4-1.1s-0.3-1-0.6-1.4L238.3,141.2z"/>
		<path class="st0" d="M233.5,141.8c0.5,0.5,0.7,1.3,1,2.2c0.4,0.1,0.8,0.2,1.2,0.3c-0.2-0.8-0.4-1.6-0.7-2.4v-0.2l0.1-0.1h0.2
			l0.1,0.1c0.5,0.9,0.8,1.8,1.1,2.7c0.5,0.1,1,0.2,1.5,0.4c-0.5-1.1-0.8-2.2-1.3-3.4C235.6,141.5,234.6,141.7,233.5,141.8z"/>
		<path class="st0" d="M222.2,166.3l-0.1,0.1c-0.3,0.2-0.4,0.1-0.4,0.1c-0.3,0-0.3-0.1-0.4-0.2l-0.1-0.1c-0.1,0.1-0.1,0.2-0.2,0.2
			c-0.1,0.1,0-0.1-0.1,0.3c0,0.2-0.1,0.4-0.3,0.6c0.7-0.3,1.4-0.6,2-1l-0.1-0.1L222.2,166.3z"/>
		<path class="st0" d="M210.5,186.3l-0.1-0.2l0.1,0.3c0.4,0.6,0.8,1.1,1.2,1.7c0,0-0.4-0.6-0.8-1.2
			C210.8,186.7,210.6,186.5,210.5,186.3z"/>
		<path class="st0" d="M215.1,187.8c0.1,0.1,0.2,0.1,0.3,0.2c0.1,0.2,0.3,0.4,0.4,0.5c2.6,3.5,5.1,7.1,7.7,10.6
			c-1.3-2.3-2.7-4.6-4.1-6.9l-4.3-5.9l-4.2-5.9c0.4,0.7,0.9,1.4,1.3,2.2C213.2,184.3,214.2,186.1,215.1,187.8z"/>
		<path class="st0" d="M222.4,135.9c-1.2,0.7-2.5,1.5-3.7,2.3c0.2,0.1,0.4,0.2,0.6,0.3c0.1,0.1,0.3,0.1,0.4,0.2h0.1c0,0,0,0,0.1,0
			c1.2-1,2.4-2.5,3.4-2.9c-0.2-0.2-0.4-0.3-0.7-0.4v0.4C222.4,135.9,222.4,135.9,222.4,135.9z"/>
		<path class="st0" d="M212,187.7c0.4,0.7,0.8,1.3,1.2,1.9C212.9,189,212.5,188.3,212,187.7z"/>
		<path class="st0" d="M222.2,115c0,0.1,0.1,0.1,0.1,0.2c0.2,0.2,0.3,0.5,0.5,0.7c0,0,0.1,0.1,0.1,0.2c0.1-0.1,0.2-0.1,0.3-0.2
			c0-0.1-0.1-0.1-0.2-0.2c-1.4-2.1-3-4.1-4.7-6.2c0,0.1,0,0.2,0.1,0.3C219.6,111.5,220.8,113.2,222.2,115L222.2,115z"/>
		<path class="st0" d="M222.6,135.3v0.1C222.7,135.2,222.7,135.3,222.6,135.3z"/>
		<path class="st0" d="M233.9,148.1c0.3,0.1,0.3,0.1,0.4,0.1l0.1-0.1c-0.1,0-0.1,0-0.2,0c-0.2,0-0.5-0.1-0.7-0.1L233.9,148.1z"/>
		<path class="st0" d="M233.3,142c-0.1-0.1,0,0-0.1-0.1c-0.2,0-0.5,0.1-0.7,0.1l0.8,1.8c0.2,0,0.4,0.1,0.6,0.1
			c-0.1-0.5-0.3-1.1-0.5-1.6C233.4,142.2,233.3,142,233.3,142z"/>
		<path class="st0" d="M220.9,134.8l-0.4,0.3c-1.2,0.8-2.3,1.7-3.6,2.3c0.3,0.1,0.6,0.2,0.9,0.4c0,0,0.1,0,0.2,0.1
			c1-0.7,2.1-1.4,3.1-2l0.6-0.4c0.1-0.1,0.3-0.2,0.3-0.2c0.3-0.2,0.4-0.1,0.6,0c-0.5-0.5-0.9-0.7-1.3-0.9
			C221.2,134.5,221,134.6,220.9,134.8z"/>
		<path class="st0" d="M222.8,168.7l0.4,2.6V171l12.8-9.1l-3.4-1.2l-3.1,2.2C227.7,165.3,225.4,167.2,222.8,168.7z"/>
		<path class="st0" d="M258.5,160.1c-0.3,0.6-0.5,1.2-0.5,1.9c0.4-0.6,0.7-1.2,1.1-1.8l0.1-0.1c0.6-0.8,1.1-1.7,1.7-2.5
			C260,158.4,259.2,159.2,258.5,160.1z"/>
		<path class="st0" d="M309.3,184.8L239,234.5l0.8,3l67.1-47.5C307.7,188.3,308.5,186.5,309.3,184.8z"/>
		<path class="st0" d="M304.9,193.8l-64.5,45.7l0.8,3l60.1-42.6C302.6,197.9,303.8,195.9,304.9,193.8z"/>
		<path class="st0" d="M274.6,173.1l-43.9,31.1l0.8,3l47.2-33.4l2.3,0.3l-2.8-0.4C277.1,173.5,275.8,173.3,274.6,173.1z"/>
		<polygon class="st0" points="281.7,174.1 232.1,209.2 232.1,209.4 232.9,212.2 286.1,174.5 283.9,174.3 		"/>
		<path class="st0" d="M223.8,204.8c1.3,1.6,2.6,3.2,3.9,4.8c-0.1-0.9-0.3-1.6-0.5-2.3c-0.6-0.7-1.1-1.4-1.6-2.1c-1-1.4-2-2.7-3-4.1
			l-0.2-0.2c-2.3-3.2-4-5.6-6.3-9c0.3,0.5,0.6,1.1,0.9,1.6c0.3,0.5,0.6,1.1,0.9,1.6c0.9,1.5,1.9,3,2.9,4.5c0.1,0.1,0.2,0.2,0.2,0.2
			c-0.1,0-0.1-0.1-0.2-0.2c-1-1.4-2-3-2.9-4.5c-0.3-0.5-0.6-1-0.9-1.6c-0.3-0.6-0.7-1.1-1-1.7c-0.4-0.6-0.9-1.3-1.3-2
			c-0.1-0.2-0.2-0.4-0.3-0.6l-0.1-0.2c-1.6-2-3.2-3.9-4.7-5.9c0.5,0.8,1,1.7,1.6,2.5c1.9,2.9,4,5.7,5.4,9c0,0,0,0,0,0.1
			c2.2,2.9,4.3,5.7,6.4,8.8c0.1,0.2,0.2,0.3,0.3,0.5c0.1,0.1,0.2,0.2,0.3,0.3v0.1c0.1,0.1,0.1,0.1,0.1,0.1c0-0.1,0-0.1-0.1-0.1v-0.1
			c-0.1-0.1-0.2-0.2-0.3-0.3c0,0,0,0,0-0.1c-0.1-0.1-0.2-0.3-0.3-0.4c-2.1-2.9-4.2-5.8-6.4-8.7c0,0.1,0.1,0.3,0.2,0.5
			c0.1,0.4,0.3,0.8,0.4,1.2v0.1C219.4,199.3,221.6,202.1,223.8,204.8z"/>
		<path class="st0" d="M235.5,222.4l0.6,2.2l2.2,7.8l72.3-51.2c0.6-1.6,1.1-3.1,1.6-4.7l-74.7,52.9l-0.6-2l76.2-54v-0.1l-3.1,0.5
			l-3.2,0.4h0.3l-71,50.2L235.5,222.4z"/>
		<path class="st0" d="M298.2,204.6l-55.9,39.5c3.4-1.1,6.8-2.3,10.1-3.6l39.2-27.7C294,210.2,296.2,207.4,298.2,204.6z"/>
		<path class="st0" d="M263.1,235.6c7.4-4.1,14.2-8.9,20.4-14.5L263.1,235.6z"/>
		<path class="st0" d="M263.8,163.9c-0.2,0.4-0.4,0.7-0.6,1.1l-0.3,0.3c-0.2,0.4-0.4,0.7-0.6,1c0,0-0.1,0-0.1,0.1
			c0.2,0.1,0.4,0.2,0.6,0.3c0.6-0.9,1.3-1.8,1.9-2.7c0.3-1,0.7-2.1,1.1-3.1c-0.6,0.8-1.2,1.6-1.6,2.5
			C264,163.6,263.9,163.7,263.8,163.9z"/>
		<path class="st0" d="M234.1,216.7l1.6,5.7l67.6-47.8c-1.7,0.1-3.3,0.2-4.9,0.3h-0.5L235,219.4l-0.6-2.1l59.9-42.4h-1.8
			c-1.2,0-2.2-0.1-3.2-0.1l-55.8,39.5L234.1,216.7z"/>
		<path class="st0" d="M268.2,161.8c-0.5,0.5-1,1-1.5,1.5c-0.8,1.4-1.6,2.7-2.5,4c0.4,0.2,0.7,0.3,1.1,0.5c0,0,0.6-0.9,0.8-1.3
			c0.1-0.2,0.2-0.3,0.3-0.5c0.1-0.1,0.2-0.3,0.3-0.5c0.2-0.2,0.3-0.4,0.4-0.6c1.3-2.1,2.4-4.3,3.9-6.7
			C270.1,159.4,269.2,160.6,268.2,161.8L268.2,161.8z"/>
		<path class="st0" d="M263.7,161.4c0.1-0.4,0.3-0.8,0.4-1.2c-0.1,0.1-0.1,0.2-0.2,0.4v0.1c-0.9,1.4-1.8,2.7-2.8,4l-0.1,0.1
			c-0.2,0.2-0.3,0.4-0.5,0.6c0.2,0.1,0.4,0.3,0.6,0.4c0.5-0.8,1-1.6,1.5-2.4C262.9,162.7,263.3,162.1,263.7,161.4z"/>
		<polygon class="st0" points="268,171.7 229.4,199.1 230.2,202.1 271.9,172.6 270,172.2 		"/>
		<polygon class="st0" points="265.5,171 265.5,171 267.1,171.4 		"/>
		<polygon class="st0" points="228.8,196.3 229,196.9 265.5,171 264.6,170.8 261.9,170.1 228.2,193.9 		"/>
		<path class="st0" d="M209.7,183c1.5,2,3.1,3.9,4.7,5.9l-0.1-0.2c0-0.1,0-0.2-0.1-0.3c-1.9-2.6-3.8-5.3-5.3-8.2
			c-0.1,0.2-0.1,0.3-0.2,0.5v0.1c0.2,0.5,0.3,0.9,0.5,1.4C209.4,182.5,209.5,182.7,209.7,183z"/>
		<path class="st0" d="M193,155.5c0-0.2,0.1-0.5,0.1-0.7c-0.2,0.3-0.4,0.7-0.6,1l-0.2,0.3c-0.1,0.1-0.2,0.2-0.2,0.2l-0.1,0.1
			c0,0.1-0.1,0.2-0.1,0.2l0.5-0.1l0.4-0.2C192.8,156.1,192.9,155.7,193,155.5z"/>
		<polygon class="st0" points="187.7,137.9 185.7,137.2 185.7,137.2 		"/>
		<polygon class="st0" points="200.2,125.1 199.9,123.5 182.3,136 185.7,137.2 200.5,126.7 		"/>
		<polygon class="st0" points="200.5,126.7 200.5,126.7 200.8,128.4 		"/>
		<path class="st0" d="M175.2,133.6l1.4,0.5C176.1,133.9,175.7,133.8,175.2,133.6z"/>
		<path class="st0" d="M126.7,209.1l67.5-47.8c-0.2-0.4-0.5-0.8-0.7-1.2c-0.8,0.1-1.7,0.2-2.7,0.4l-0.7,0.1l-65.2,46.2l0.8,1.1
			L126.7,209.1z"/>
		<path class="st0" d="M187.7,156.5c-0.1,0.3-0.2,0.5-0.2,0.5c-0.1,0.2-0.2,0.4-0.2,0.4c0,0.1-0.1,0.1-0.1,0.2l0.3-0.1l1-2
			c0.1-0.3,0.3-0.7,0.4-1c-0.3,0-0.6,0.1-0.9,0.1c0.2,0,0.1,0.1,0.1,0.2c0,0-0.2,0.2-0.1,0.2c-0.1,0.4-0.1,0.9-0.2,1.3L187.7,156.5z
			"/>
		<path class="st0" d="M187.9,154.9C188,155,188,154.9,187.9,154.9L187.9,154.9z"/>
		<polygon class="st0" points="193.3,95.7 193.8,97.8 193.8,97.8 		"/>
		<path class="st0" d="M175.2,133.6c-0.4-0.1-0.7-0.2-1-0.3l0.9,0.3H175.2z"/>
		<polygon class="st0" points="152,127.4 154.8,128 155.9,128.3 194.6,100.9 193.8,97.9 193.8,97.8 152.1,127.4 		"/>
		<polygon class="st0" points="119.2,125.4 117.5,125.6 118.8,125.5 		"/>
		<polygon class="st0" points="187,72.4 110.5,126.5 113.6,126 116.8,125.6 187.9,75.3 		"/>
		<path class="st0" d="M197.7,113.1l-26.9,19.1l1.4,0.4c0.6,0.3,1.3,0.5,2,0.7l24.2-17.1L197.7,113.1z"/>
		<path class="st0" d="M186.2,154.8c-0.1,0-0.2,0-0.4,0l-0.1,0.1c0.2,0.1,0.3,0.2,0.4,0.2C186.1,155,186.2,154.9,186.2,154.8z"/>
		<path class="st0" d="M145.2,126.2l1.3,0.1c1,0.1,1.9,0.3,2.9,0.5l43.9-31.1l-0.8-3L145.2,126.2z"/>
		<path class="st0" d="M181.1,158.9c0,0,0-0.1,0-0.2c0,0.1-0.1,0.1-0.2,0.2H181.1z"/>
		<path class="st0" d="M103.7,181.1c-2.5,0.7-5.1,1.4-7.7,2.1c1.6,4.7,3.5,9.1,5.7,13.6c9.5,19.1,24.7,35.6,43.2,47.2
			c13.8,8.6,29.5,14.4,45.9,17c-0.7-2.7-1.4-5.4-1.9-8C148.8,245.4,116.5,217.6,103.7,181.1z"/>
		<path class="st0" d="M158.2,167.2l-2.5,0.6c-0.1,0.1-0.3,0.2-0.3,0.2h-0.1v-0.1l-1.6,0.4l-37,26.2l0.6,1.1l0.9,1.5l43.1-30.5
			l3.2-0.7l2-0.6l-1.9,0.4C162.6,166.2,160.5,166.6,158.2,167.2z"/>
		<polygon class="st0" points="120,199.8 120.9,201.2 173.8,163.7 175.5,163.3 170.3,164.4 166.5,165.3 119.3,198.7 		"/>
		<path class="st0" d="M184.1,158.2l0.5-0.1c0.3-0.6,0.7-1.1,1-1.7l0.3-0.4c0-0.2,0.1-0.5,0.1-0.7l-1.8,2.6
			C184.2,158,184.1,158.1,184.1,158.2z"/>
		<path class="st0" d="M186.1,69.1l-0.5-1.7l-77.9,55.2c-0.4,1.4-0.7,2.8-1,4.3l79.8-56.5L186.1,69.1z"/>
		<path class="st0" d="M181.4,158.8c0,0,0,0,0-0.1l-0.1,0.2L181.4,158.8z"/>
		<path class="st0" d="M180.1,158.9l-0.2,0.3C180,159.1,180.1,159,180.1,158.9z"/>
		<path class="st0" d="M123.7,205.2l61.9-43.8l2.2-0.4l-3.6,0.6c-1.7,0.3-3.5,0.7-5.5,1.1L122,202.8l0.7,1.1L123.7,205.2z"/>
		<path class="st0" d="M181,158.9L181,158.9c0-0.1,0.1-0.2,0.2-0.3v0.1l0.1-0.1c0-0.1,0.1-0.2,0.1-0.2c0-0.1,0-0.1,0-0.1
			c0.1-0.3,0.1-0.4,0.2-0.5c0.2-0.4,0.4-0.7,0.6-1.1c0.2-0.5,0.5-1,0.7-1.4h-0.2l-2.7,3.9L181,158.9z"/>
		<path class="st0" d="M181.3,155.4C181.2,155.4,181.3,155.5,181.3,155.4L181.3,155.4z"/>
		<path class="st0" d="M182.4,158.5l0.1-0.1C182.4,158.4,182.4,158.5,182.4,158.5z"/>
		<polygon class="st0" points="182.6,158.3 182.5,158.6 182.9,158.5 		"/>
		<path class="st0" d="M276.3,67.2c-0.8-0.6-1.6-1.2-2.5-1.8l-38,26.8c-0.3,1.4-0.6,2.8-1,4.3l-0.3,1.3v0.1c0.1-0.4,0.2-0.9,0.3-1.3
			L276.3,67.2z"/>
		<polygon class="st0" points="109.2,126.8 107.9,127 107.4,127.1 		"/>
		<path class="st0" d="M232.7,104l47.6-33.7c-0.8-0.6-1.6-1.3-2.4-1.9l-43.8,31v0.1v-0.1l-0.1,0.1C233.6,101,233.1,102.5,232.7,104z
			"/>
		<path class="st0" d="M236.5,53.1l0.3,2.1C236.7,54.4,236.6,53.8,236.5,53.1z"/>
		<path class="st0" d="M231.7,107l0.4-1C231.9,106.4,231.8,106.7,231.7,107L231.7,107z"/>
		<path class="st0" d="M232.7,104c-0.2,0.6-0.4,1.3-0.6,2L232.7,104z"/>
		<path class="st0" d="M231.7,107l-0.1,0.1c-0.5,1.5-1,3.1-1.6,4.7l54-38.2c-0.7-0.7-1.5-1.3-2.2-2L231.7,107L231.7,107
			C231.7,107.1,231.7,107,231.7,107z"/>
		<path class="st0" d="M267.5,61.1l-1.8-1.1l-1-0.5l-26.9,19.2c-0.1,1.3-0.2,2.5-0.4,3.7L267.5,61.1z"/>
		<path class="st0" d="M239.8,49.3l-2.2-0.6l-1.7,1.2c0.2,1.1,0.4,2.1,0.6,3.2l4.8-3.4L239.8,49.3z"/>
		<path class="st0" d="M237.4,82.7v-0.2v-0.1l0,0C237.4,82.5,237.4,82.6,237.4,82.7z"/>
		<path class="st0" d="M237.3,58.8v-0.3l9.9-7l-2.4-0.8l-1.1-0.3l-6.9,4.9c0.2,1.4,0.4,2.6,0.5,3.9V58.8z"/>
		<path class="st0" d="M237.3,59.2l0.2,1.6C237.4,60.3,237.4,59.7,237.3,59.2z"/>
		<path class="st0" d="M236.8,55.3C236.8,55.3,236.8,55.2,236.8,55.3L236.8,55.3L236.8,55.3z"/>
		<path class="st0" d="M252.6,53.7c-1.1-0.4-2.1-0.9-3.2-1.3l-11.9,8.4c0.1,1.1,0.2,2.3,0.3,3.4L252.6,53.7z"/>
		<path class="st0" d="M234.5,97.9l-0.4,1.5C234.2,98.9,234.4,98.4,234.5,97.9z"/>
		<polygon class="st0" points="134.7,125.1 190.6,85.5 189.8,82.5 129.8,125 132.2,125 		"/>
		<path class="st0" d="M189.2,80.5l-0.7-2.4l-0.1-0.6l-67.7,47.9c1.9-0.1,3.7-0.2,5.5-0.3L189.2,80.5z"/>
		<path class="st0" d="M111.2,111.6l72.4-51.2l-0.3-1.1l-0.5-1.9l-69.4,49.1C112.6,108.2,111.9,109.9,111.2,111.6z"/>
		<path class="st0" d="M108.5,119.5L185,65.4l-0.8-3L110,114.9C109.5,116.4,109,118,108.5,119.5z"/>
		<path class="st0" d="M115.2,102.7l67-47.4l-0.9-2.9l-62.9,44.5C117.3,98.8,116.2,100.8,115.2,102.7z"/>
		<path class="st0" d="M121.2,92.5l59.6-42.2l-0.3-0.7c-2.3,0.7-4.6,1.4-6.8,2.2l-47.1,33.3C124.7,87.5,122.9,90,121.2,92.5z"/>
		<path class="st0" d="M132.2,78.7L165.6,55C152.9,60.7,141.6,68.8,132.2,78.7z"/>
		<path class="st0" d="M192,90.6l-0.8-3L138,125.3c1.5,0.1,2.9,0.3,4.3,0.4L192,90.6z"/>
		<path class="st0" d="M287.6,77c-0.7-0.7-1.4-1.4-2.1-2.1l-56.6,40.2c-0.6,1.6-1.2,3.2-1.8,4.8L287.6,77z"/>
		<polygon class="st0" points="201.4,132.1 201.3,131.3 200.9,128.9 188,138 191.4,139.2 		"/>
		<path class="st0" d="M228.9,115.1l0.2-0.6C229,114.7,229,114.9,228.9,115.1z"/>
		<path class="st0" d="M199.5,121.5L199.5,121.5l-0.7-3.1l-22.2,15.7c1.1,0.4,2.3,0.8,3.4,1.2L199.5,121.5z"/>
		<path class="st0" d="M237.8,78.7c0.1-0.8,0.1-1.5,0.2-2.3L237.8,78.7z"/>
		<polygon class="st0" points="162.2,129.7 195.9,105.9 195.1,102.9 158.5,128.8 160.4,129.3 		"/>
		<polygon class="st0" points="168.3,131.4 197.2,111 197.5,112.1 196.4,108 164.7,130.4 166.2,130.8 		"/>
		<path class="st0" d="M244.3,144.7c-0.9-1.2-1.7-2.5-2.4-3.9c-1.1,0.1-2.2,0.3-3.2,0.4c0.1,0.1,0.2,0.3,0.3,0.4
			c0.4,0.6,0.7,1.2,1.1,1.8v0.1c0.2,0.4,0.5,0.9,0.5,0.9c0.2,0.4,0.4,0.9,0.6,1.3c0.3,0.1,0.6,0.2,0.9,0.3c0.3,0.1,0.7,0.2,1,0.3
			l-2.3-4.8v-0.2l0.1-0.1h0.2l0.1,0.1l2.4,5.1c0.3,0.1,0.7,0.2,1,0.3c0,0,0,0,0.1,0s0.1,0.1,0.1,0.1c0.1,0.2,0.2,0.4,0.7,0.5h0.2
			c-0.2-0.4-0.4-0.7-0.6-1.1C245.1,146.2,244.7,145.4,244.3,144.7z"/>
		<path class="st0" d="M167.9,156.9c-1.5,2.1-3.3,4-5,6.1l1.1-0.3c1-1.8,3-3.2,4.2-4.6c0.5-0.6,1-1.3,1.5-1.8
			c-0.5,0-0.9,0.1-1.4,0.1C168.2,156.6,168.1,156.7,167.9,156.9z"/>
		<path class="st0" d="M160.9,163.4l1-0.2c0.1-0.2,0.2-0.3,0.3-0.4c1.7-2.2,3.8-4.1,5.5-6.3c0.1-0.1,0.1-0.2,0.2-0.2
			c-0.6,0-1.3,0-1.9,0C164.1,158.6,162.6,161,160.9,163.4z"/>
		<path class="st0" d="M170.2,156.2c-0.7,0.9-1.3,1.8-2,2.6c-1,1.2-2.4,2.3-3.3,3.6l1.1-0.2c2.5-3.1,2.7-3.1,5.6-6.1
			c-0.1,0-0.2,0-0.4,0C170.9,156.1,170.5,156.2,170.2,156.2z"/>
		<path class="st0" d="M166.8,162.1l1.3-0.3l0.5-0.1c1.8-1.8,3.5-3.7,5.2-5.7c-0.4,0-0.9,0-1.3,0.1
			C170.8,158,168.4,159.9,166.8,162.1z"/>
		<path class="st0" d="M214.5,191.7c0.1,0.1,0.1,0.2,0.2,0.3C214.6,191.9,214.6,191.8,214.5,191.7z"/>
		<path class="st0" d="M159.7,162.6v0.1c-0.1,0.2-0.3,0.4-0.4,0.5c-0.2,0.2-0.3,0.4-0.5,0.6l1.3-0.2c1.8-2.5,3.4-4.8,5.4-7.3
			c-0.4,0-0.8,0-1.2,0C162.7,158.4,161.3,160.5,159.7,162.6z"/>
		<polygon class="st0" points="191.4,263.4 191.5,263.7 191.4,263.2 		"/>
		<polygon class="st0" points="187.8,248.1 187.9,248.8 188.2,250.1 		"/>
		<path class="st0" d="M115,191.1l0.8,1.5l32.7-23.1l-4.9,1.2c-4.9,1.2-10.3,2.6-16,4.1l-15.1,10.7l0.5,1.1l0.7,1.6l21.8-15.4
			l5.4-1.4L114.5,190L115,191.1z"/>
		<polygon class="st0" points="187.3,244.6 187.6,246.7 187.7,247.2 		"/>
		<path class="st0" d="M175.7,156.2L175.7,156.2v-0.1l0.1-0.1c-0.6,0-1.2,0.1-1.7,0.1c-1,1.3-2.1,2.5-3.2,3.8
			c-0.5,0.6-1.1,1.2-1.6,1.7l0.4-0.1l1.6-0.3c0,0,0-0.1,0.1-0.1h-0.1c0.1-0.2,0.2-0.3,0.4-0.4c0.2-0.3,0.4-0.5,0.5-0.7l0.3-0.4
			l0.1-0.1l-0.4,0.5c-0.2,0.2-0.4,0.4-0.5,0.7c-0.1,0.1-0.2,0.3-0.3,0.4h0.1l0.5-0.1c0.4-0.6,0.8-1.2,1.2-1.7
			c0.2-0.3,0.4-0.6,0.5-0.9c-0.1,0.1-0.2,0.2-0.3,0.2c-0.1,0.2-0.3,0.3-0.4,0.5c0,0.1-0.1,0.1-0.1,0.1l-0.1,0.1
			c0.1-0.1,0.2-0.2,0.2-0.2c0.1-0.2,0.3-0.3,0.4-0.5c0.1-0.2,0.3-0.3,0.4-0.5c0,0.1-0.1,0.2-0.2,0.2c0.1,0,0.1-0.1,0.2-0.1
			c0.2-0.3,0.4-0.6,0.7-0.9l0.2-0.3c0.3-0.3,0.5-0.4,0.7-0.6l0.1-0.1L175.7,156.2C175.6,156.3,175.6,156.3,175.7,156.2L175.7,156.2z
			"/>
		<polygon class="st0" points="110.6,180.7 111,181.9 111.6,183.5 121.8,176.2 114,178.3 		"/>
		<polygon class="st0" points="125.6,175.3 126,175.2 126.4,175.1 125.9,175.2 125.5,175.3 121.9,176.2 121.8,176.2 122,176.2 		"/>
		<path class="st0" d="M175.9,155.9l-0.1,0.1l-0.1,0.2l0,0l0,0v0.1c0,0,0,0,0.1,0c0.2-0.3,0.5-0.7,0.8-1.1c-0.2,0.2-0.4,0.4-0.5,0.6
			L175.9,155.9z"/>
		<path class="st0" d="M200,165.3c-0.1-0.7-0.3-1.4-0.4-2c-0.1,0.5-0.1,1.1-0.1,1.6C199.7,165.1,199.9,165.2,200,165.3z"/>
		<path class="st0" d="M198.6,162.5c0,0.3-0.1,0.6,0,0.9v0.1c0,0,0,0,0.1,0l0.1,0.1c0,0.1-0.1,0.3-0.1,0.3l-0.1,0.1
			c0.1,0.2,0.3,0.3,0.5,0.5c0-0.9,0.1-1.8,0.2-2.6c0,0,0.1-0.4,0.2-0.6c0-0.1,0-0.1,0-0.2c-0.2-0.3-0.4-0.5-0.6-0.8
			C198.8,161.1,198.7,161.8,198.6,162.5z"/>
		<path class="st0" d="M200.7,165.8c0.1,0.1,0.2,0.1,0.3,0.2c0-0.5-0.2-1.2-0.3-1.8C200.7,164.7,200.7,165.3,200.7,165.8z"/>
		<path class="st0" d="M201.2,165.8v-0.7c0-1.1,0-2.2,0-3.4L201,166c0.1,0,0.1,0.1,0.2,0.1V165.8z"/>
		<path class="st0" d="M194.3,157.8C194.2,157.9,194.3,157.9,194.3,157.8L194.3,157.8z"/>
		<path class="st0" d="M176.8,158.3c0.1-0.1,0.2-0.3,0.3-0.4c0.2-0.2,0.3-0.5,0.5-0.7l0.3-0.3c0.3-0.4,0.7-0.7,1.1-1
			c0-0.1,0.1-0.2,0.1-0.2c-0.2,0-0.4,0-0.7,0.1c-1.2,1.4-2.1,3.1-3.3,4.5l1-0.3c0.1-0.1,0.1-0.2,0.2-0.3c0-0.1-0.1-0.3,0-0.5
			C176.3,159.2,176.6,158.6,176.8,158.3z"/>
		<path class="st0" d="M129.9,213l67.4-47.7c-0.7-0.8-1.4-1.6-2-2.3L128,210.7l0.9,1.1L129.9,213z"/>
		<path class="st0" d="M194.6,139.9c0.1,0,0.1-0.1,0.2-0.1c0,0,0.2-0.1,0.2-0.2c0.1-0.1,0.1-0.2,0.2-0.3l0.7-0.9l-2.2,1.6l0.7,0.2
			C194.5,140,194.6,139.9,194.6,139.9z"/>
		<polygon class="st0" points="201.5,133.7 200.7,134.2 200.6,134.3 		"/>
		<polygon class="st0" points="196.7,137.7 196.5,137.8 196.2,138.2 		"/>
		<path class="st0" d="M193.7,140l-1.7-0.6L193.7,140z"/>
		<polygon class="st0" points="200.4,134.4 199.7,134.9 200,134.7 		"/>
		<polygon class="st0" points="199.4,135.2 199.2,135.3 198.6,135.8 		"/>
		<path class="st0" d="M222.4,139.1l0.2-0.1c0.2-0.2,0.6-0.4,0.6-0.4l0.2-0.1c0.7-0.4,1.4-0.7,2-1.1c-0.3-0.4-0.6-0.6-0.9-0.9
			c-0.2,0.1-0.5,0.2-0.7,0.3c-0.3,0.2,0,0-0.4,0.3c-1.1,0.7-2.2,1.6-3.3,1.6l1.6,0.8C221.9,139.4,222.2,139.3,222.4,139.1z"/>
		<path class="st0" d="M236.3,247.7c-1.9-2.6-3.9-5.2-6-7.6l-0.1-0.1c-0.2-0.3-0.4-0.5-0.6-0.8l-0.1-0.2l0.1-0.2l0.1-0.1h0.2
			c2.1,2.3,4.1,4.7,6,7.2c-0.3-1.2-0.6-2.5-0.9-3.7c-2-2.6-4-5.3-5.9-7.9c-0.6-0.8-1.2-1.7-1.8-2.6l-0.4-0.5c0-0.1,0-0.5,0.1-0.6
			h0.1c3.7,1.1,5.3,5.1,7.2,8.6c-0.2-0.9-0.4-1.9-0.7-2.8c-2.6-3.7-5.1-7.4-6.9-10.1l-0.2-0.3c-0.9-1.3-1.8-2.6-2.6-3.9l-0.1-0.2
			l-0.1-0.3l-0.1-0.2c-0.2-0.4-0.4-0.7-0.6-1.1l-0.1-0.2c-0.2-0.4-0.4-0.7-0.6-1.1l-0.1-0.2l0.3-0.5l0.1-0.1c0,0,0.6,0,0.7,0.1
			c0.2,0.3,0.4,0.5,0.7,0.8c0.1,0.1,0.1,0.1,0.2,0.2c0.3,0.3,0.6,0.7,0.8,1l0.2,0.2l0.2,0.2c0.1,0.1,0.2,0.2,0.2,0.2
			c0.8,1.2,1.6,2.3,2.4,3.5c0.1,0.2,0.2,0.3,0.4,0.5c1.4,2,2.8,4,4.2,6c-0.3-1.4-0.7-2.8-1-4.2c-2.9-3.9-5.8-7.9-8.8-11.8l-0.2-0.2
			c-0.4-0.5-0.8-1.1-1.1-1.6l-0.1-0.2c-0.3-0.5-0.7-1-1-1.5c-0.1-0.3-0.2-0.6-0.4-0.8l-0.1-0.2c0,0-0.1-0.1,0.1-0.1
			c0.2,0.2,0.5,0.4,0.7,0.6c0.1,0,0.1,0.1,0.2,0.1c0.4,0.4,0.7,0.8,1,1.2c0.1,0.1,0.1,0.1,0.2,0.2c0.2,0.3,0.5,0.6,0.7,0.9
			c0,0,0.4,0.5,0.7,0.8s0.5,0.6,0.8,0.9c2,2.5,4.3,5,6.4,7.7c-0.4-1.6-0.7-3.2-1.1-4.8c-1.9-2.4-3.9-4.8-5.9-7.2
			c0,0-0.3-0.4-0.4-0.6L223,209c-0.3-0.5-0.7-1-1-1.5l-0.1-0.2l-0.1-0.2l-0.7-1.1c-0.5-0.7-1-1.3-1.5-2l-0.2-0.3l-0.2-0.3
			c-0.2-0.3-0.4-0.7-0.7-1l-0.2-0.3c0,0,0.1-0.1,0.2-0.1c0.4,0.4,0.8,0.7,1.1,1.1c0,0,1.1,1.2,1.6,1.7l0.5,0.6l0.1,0.1l0.9,0.9
			l0.2,0.1c0,0,0.8,0.7,1.1,1.1c0.1,0.1,0.2,0.2,0.3,0.3c0.2,0.2,0.4,0.4,0.6,0.5c0.1,0.1,0.1,0.1,0.2,0.2c0.5,0.6,1.1,1.3,1.6,1.9
			c0.1,0.1,0.1,0.1,0.2,0.2c0.6,0.7,1.1,1.4,1.7,2.1c-0.2-0.5-0.4-1.1-0.5-1.8c-3.8-4.8-7.7-9.6-11.4-14.5c0-0.2,0-0.2,0-0.4h0.1
			h0.1c-0.6-1.4-1.4-2.7-2.1-4l-0.1-0.1c0,0.1,0.1,0.2,0.1,0.2c-0.1-0.2-0.2-0.3-0.3-0.4v-0.1c0,0.1-0.1,0.1-0.2,0.1
			c-0.2,0-0.4-0.3-0.6-0.5c-1-1.2-2-2.4-2.9-3.7c4.9,16.3,8,33,8.8,50c0,0,0,0.2,0,0.3c0,2.3,0.1,4.5,0,6.8s-0.2,4.5-0.3,6.8
			c0,0-0.1,1.6-0.2,2.4c-0.2,2.2-0.4,4.3-0.7,6.5v0.1c-0.2,1.6-0.5,3.2-0.8,4.8v0.1c-0.3,1.5-0.7,3-1.1,4.5c0,0,0-0.3,0-0.4
			c0.2-1.4,0.4-2.7,0.6-4.1c0,0,0.2-1.8,0.4-2.7c0.1-0.7,0.2-1.4,0.2-2.1c0,0,0.2-1.6,0.3-2.3c0.2-2.1,0.4-4.3,0.5-6.4v-0.1
			c0.2-4.5,0.1-9-0.2-13.5c0,0-0.1-2.2-0.2-3.3c0-0.8-0.1-1.6-0.2-2.4c-0.8-7.8-2.1-15.6-3.6-23c-0.5-2.3-1-4.7-1.6-7h-0.1
			c-0.7,0.4-1.5,0.7-2.2,1h-0.5l-0.4-0.3v-0.5l0.3-0.4c0.7-0.3,1.4-0.5,2.1-0.9c0.1-0.1,0.3-0.2,0.4-0.3c-0.1-0.6-0.3-1.1-0.4-1.7
			c-0.1,0.1-0.3,0.1-0.4,0.2h-0.4c-0.2,0.1-0.5,0.1-0.5,0.1c-1.1,0.3-2.2,0.6-3.1,1.3c-0.4,0.3-0.2,0.2-0.2,0.2l-0.1,0.1l-0.1-0.1
			c0-0.6,0.8-1.1,1.6-1.6c0.6-0.4,1.2-0.8,1.8-1.2l0.1-0.2c0.1-0.2,0.3-0.3,0.6-0.4c0.1,0,0.2-0.1,0.4-0.1c-0.2-0.6-0.3-1.2-0.5-1.9
			c-0.1,0.1-0.2,0.1-0.3,0.2c-0.3,0.2-0.6,0.5-1,0.7l-0.5,0.3c-0.5,0-1,0.3-1.5,0.5c0,0-1.2,0.5-2.1,0.9c-0.3,0.1-0.7,0.3-1,0.4
			c0,0-1.1,0.6-1.8,1.1c-0.4,0.2-0.8,0.5-1.2,0.5l-0.2-0.1l-0.1-0.1l0.1-0.1l0.2-0.1c0.1,0,0,0,0.1,0c0.9-0.4,1.6-1.2,2.4-1.8
			l0.1-0.1c0.3-0.2,0.6-0.4,0.6-0.4c0.7-0.4,1.4-0.8,2.1-1.3c0.3-0.2,0.6-0.5,1-0.7l0.2-0.3c0.2-0.1,0.4-0.2,0.4-0.2
			c0.4-0.3,0.9-0.6,1.2-0.9h0.4c0.3-0.1,0.2,0,0.2,0h0.1c-0.2-0.7-0.4-1.4-0.6-2.1c-0.1,0.1-0.3,0.3-0.4,0.4
			c-0.2,0.2-0.6,0.4-0.6,0.4c-0.4,0.3-0.9,0.6-1.3,0.8l-0.7,0.3c-0.2,0.1-0.6,0.2-0.6,0.2c-0.3,0.1-0.6,0.3-1,0.4
			c0,0-0.3,0.1-0.4,0.2l-0.3,0.1c-0.1,0.1-0.2,0.1-0.3,0.2l-0.2,0.1c-0.1,0.1-0.2,0.1-0.4,0.2l-0.2,0.1c-1.6,0.8-3.1,1.6-4.5,2.7
			c-0.3,0.2-0.7,0.5-0.9,0.8c-0.1,0.2-0.1,0.2-0.1,0.2l-0.1,0.1l-0.1-0.1c0-0.1,0-0.1,0-0.1c0.1-0.6,0.7-1.1,1.2-1.4
			c1.3-1,2.7-1.8,4.1-2.7l0.6-0.4c0.2-0.1,0.5-0.3,0.5-0.3c0.3-0.2,0.6-0.4,0.6-0.4c0.2-0.2,0.5-0.4,0.7-0.6c0,0,0.4-0.4,0.7-0.6
			c0.2-0.1,0.3-0.3,0.3-0.3c0.7-0.5,1.5-1,2.1-1.6c0,0,0.4,0.1,0.7,0.1h0.1c-0.2-0.6-0.3-1.2-0.5-1.8c-0.8,1-2,1.8-3.1,2.5
			c-0.3,0.2-0.6,0.3-0.9,0.5c-0.6,0.2-1.1,0.4-1.7,0.6l-0.3,0.1c-0.2,0.1-0.5,0.2-0.5,0.2c-1,0.5-2,1-3,1.6c-0.6,0.3-1,0.9-1.6,1.3
			c-0.3,0.2-0.7,0.4-1.1,0.4l-0.2-0.2l0.2-0.2c0,0,0,0,0.1,0c1-0.1,1.6-1.3,2.5-1.9c0.5-0.3,1-0.6,1.5-1c0.3-0.2,0.7-0.4,1-0.7
			l0.2-0.1c0.2-0.1,0.4-0.3,0.4-0.3c0.2-0.2,0.5-0.4,0.5-0.4c0.3-0.3,0.7-0.6,1-0.9c0,0,0.5-0.4,1-0.7c0.2-0.1,0.4-0.3,0.6-0.4
			c0.7-0.5,1.4-1,1.9-1.6l0.4-0.2c0.2-0.1,0.3-0.1,0.3-0.1s0.2-0.2,0.3-0.3c-0.2-0.5-0.3-1-0.5-1.5c-1.9,1.7-3.9,3.3-5.9,4.9
			c-0.3,0.2-0.7,0.5-0.7,0.5c-0.2,0.1-0.4,0.3-0.4,0.3c-0.2,0.1-0.4,0.3-0.4,0.3c-0.3,0.1-0.5,0.3-0.8,0.4c-1,0.5-2.1,1.1-3.2,1.4
			c-0.1,0-0.2,0.1-0.4,0.1l-0.1-0.1c0,0,0.2-0.1,0.4-0.2c0,0,0.9-0.7,1.5-1.3c0.3-0.3,0.6-0.6,0.9-0.9c0,0,0.3-0.3,0.6-0.7l0.4-0.4
			c0.2-0.1,0.4-0.3,0.4-0.3c0.1-0.1,0.2-0.2,0.3-0.3c1.8-1.5,3.8-3,5.5-4.5c-3.6,0.6-6.7,3-9.1,5.5c0,0-0.5,0.5-0.8,0.8
			c-0.2,0.2-0.5,0.5-0.7,0.7c-0.7,0.7-1.3,1.5-1.9,2.3c-0.1,0.1-0.1,0.1-0.2,0.2c-10.5,34-4.9,59.3,3.5,79.4
			c8.7,20.7,37,14.6,41,13.8c4-0.8,8.7-2,5.5-13.2C241.2,267.5,238.8,258,236.3,247.7z"/>
		<path class="st0" d="M342.2,116c-28.9,7.6-82.6,20.3-111.6,25.1c0.1,0.2,0.2,0.4,0.3,0.6c0.2,0.5,0.3,1,0.5,1.5
			c0.3,0.1,0.6,0.2,0.9,0.2l-0.7-1.5c-0.1,0-0.2,0-0.3-0.1h-0.2l-0.1-0.1l0.1-0.1c0.2-0.1,0.6-0.3,0.6-0.3c11.3-2,22.9-3.5,33.7-5.4
			c15.8-2.9,31.6-6.3,47.2-10.4c3.4-0.9,6.6-1.9,10.1-3c5.3-1.7,10.6-3.5,16.3-4.1c0.8-0.1,1.7-0.1,2.5-0.1c1.2,0,2.5,0.1,3.7,0.5
			c0.8,0.4,1.5,0.9,2,1.6v0.2h-0.3c-0.6-0.4-1.4-0.5-2.1-0.6c0,0-0.5-0.1-0.9-0.2c-3.2-0.6-6.6,0-9.8,0.7c-0.9,0.2-1.8,0.4-2.6,0.6
			c-4.6,1.2-9,2.8-13.5,4.2c-2.9,0.9-5.8,1.6-8.8,2.3c-15.8,4-31.5,7.4-47.8,10.2c-4.5,0.8-8.9,1.5-13.4,2.1h-0.1
			c-1.8,0.2-3.7,0.5-5.5,0.7c0.7,1.2,1.4,2.4,2.2,3.6l0.1,0.2c0.7,1.1,1.4,2.2,2.1,3.3l4.8,0.8c1.6,0.4,3.2,0.7,4.8,0.9
			c0.6,0.1,1.2,0.2,1.7,0.2c3.1,0.6,6.2,1,9.4,1.2c8.5,0.5,17.4,0.1,25.8-1.9c0.3-0.1,0.6-0.1,0.9-0.2c0.3,0,0.5-0.1,0.8-0.1
			c8.2-0.9,16.3-2.5,24.1-4.9c3.4-1.1,6.7-2.2,10-3.5c3.1-1.2,6.2-2.3,9.3-3.6c0,0,1.4-0.5,2.6-1c0.5-0.2,1-0.4,1.6-0.7l0.2-0.1h0.1
			l-0.1,0.1c-1.2,0.8-2.5,1.6-3.7,2.4c0,0-0.3,0.2-0.6,0.3c-1.2,0.7-2.4,1.3-3.6,2l-0.1,0.1c-0.8,0.4-1.6,0.8-2.4,1.1
			c-7.6,3.4-15.6,5.9-23.9,7.6l-0.5,0.8c0.1-0.2,0.2-0.5,0.3-0.8c-0.5,0.1-0.9,0.2-1.4,0.3c0,0.1-0.1,0.1-0.2,0.3
			c-0.2,0.2-0.3,0.4-0.5,0.6c0,0-1.1,1-1.8,1l-0.2-0.1l-0.1-0.2l0.1-0.2l0.2-0.1c0.3-0.2,0.4-0.6,0.6-0.9c-0.7,0.1-1.3,0.2-2,0.3
			c-0.3,0.3-0.5,0.6-0.7,0.8v0.1c-0.6,0.7-1.1,1.4-1.6,2.2l-0.4,0.2l-0.5-0.1l-0.3-0.4l0.1-0.4c0.5-0.7,1-1.4,1.5-2.1
			c-0.4,0.1-0.9,0.1-1.3,0.2c-0.1,0.2-0.1,0.4-0.2,0.5c0,0.1-0.1,0.1-0.1,0.2c-0.2,0.3-0.3,0.5-0.5,0.7s-0.5,0.6-0.5,0.6
			c-0.4,0.5-0.6,0.7-1,1.2c-0.1,0.2-0.3,0.4-0.3,0.4l-0.2,0.2h-0.3l-0.2-0.2v-0.2c0.3-0.5,0.6-1,0.9-1.6c0,0,0.1-0.2,0.2-0.4
			c0.2-0.4,0.3-0.7,0.5-1.2V150c-0.5,0.1-1,0.1-1.5,0.2c0,0-0.3,0.9-0.5,1.2c-0.3,0.4-0.7,0.8-1,1.2c0,0-0.3,0.4-0.5,0.6
			c-0.1,0.1-0.2,0.3-0.3,0.4c-0.4,0.5-0.8,1.1-0.9,1.7l-0.2,0.2l-0.2-0.2c-0.1-1.2,0.7-2.3,1.3-3.2c0,0,0.2-0.4,0.3-0.6
			c0.2-0.4,0.3-0.8,0.5-1.2c-0.5,0.1-1.1,0.1-1.6,0.2c0.2,0.3,0,0.5,0,0.7c0,0.1-0.1,0.4-0.1,0.4c-0.1,0.4-0.3,0.7-0.4,1.1
			c-0.3,0.6-0.6,1.2-1,1.7c0,0-0.4,0.6-0.7,1.1c0,0-0.2,0.2-0.4,0.4c-0.1,0.2-0.2,0.3-0.3,0.5l-0.1,0.2c-0.5,0.9-1.1,1.9-1.6,2.9
			l-0.2,0.2h-0.3l-0.2-0.2v-0.2c0.4-1,0.9-1.9,1.5-2.8c0,0,0.2-0.5,0.4-0.8c0,0,0.2-0.7,0.5-1.2l0.1-0.5c0-0.1,0.1-0.2,0.1-0.3
			c0.1-0.3,0.3-0.7,0.4-1c0.2-0.6,0.5-1.2,0.6-1.9c-0.5,0.1-0.9,0.1-1.4,0.2c-0.5,1.5-1.4,2.9-2.2,4.3c-0.7,1.2-1.3,2.4-2.1,3.5
			c-0.8,1.4-1.7,2.7-2.4,4.1l-0.3,0.3c0,0.1,0,0.3,0,0.3c0,0.1,0,0.1,0,0.1l-0.1,0.1c0,0-0.1,0-0.1-0.1c0-0.2,0.1-0.5,0.1-0.8
			c0.1-0.2,0.1-0.5,0.2-0.7c0.5-1.5,1.2-2.9,1.8-4.4l0.1-0.2c1-2.1,2.1-4.2,2.8-6.3c-0.5,0.1-1.1,0.1-1.6,0.2c0,0.1,0.1,0.1,0.1,0.1
			c0.1,0.2,0.2,0.2,0.2,0.4c0,0.1,0,0.2,0,0.2c-0.3,1.1-0.8,2.1-1.3,3.1c-0.1,0.2-0.3,0.5-0.4,0.7c-0.6,1-1.2,1.9-1.9,2.8l-0.1,0.2
			c-0.1,0.1-0.2,0.2-0.3,0.3c-0.1,0.1-0.2,0.2-0.2,0.2c-0.9,1.3-1.8,2.7-2.2,4.2v0.1c-0.1,0.2-0.2,0.3-0.2,0.3c0,0.1,0,0.2,0,0.2
			l-0.1,0.1l-0.1-0.3v-0.1v-0.1c-0.1-0.1,0-0.2,0-0.3c0.2-1.6,0.9-3,1.6-4.5c0,0,0.2-0.4,0.3-0.7c0,0,0.2-0.4,0.3-0.6
			c0.2-0.3,0.3-0.6,0.5-1c0.4-0.8,0.8-1.5,1.2-2.3c0,0,0.4-0.9,0.7-1.5c0.2-0.5,0.3-0.9,0.5-1.4c-0.3,0-0.6,0.1-0.9,0.1
			c0,0.1,0,0.1,0,0.2s-0.1,0.3-0.1,0.4c-0.5,1.4-1.5,2.7-2.3,4c0,0-0.2,0.3-0.3,0.5c-0.4,0.7-0.8,1.3-1.3,2c0,0-0.9,1.3-1.5,2.3
			c-0.6,1.1-1.3,2.2-1.6,3.3c-0.1,0.2-0.1,0.5-0.1,0.7l-0.1,0.1c0,0-0.1-0.1-0.1-0.2c0-1,0.4-1.9,0.8-2.8c0.2-0.5,0.4-0.9,0.6-1.4
			c0,0,0.1-0.2,0.2-0.5c0.3-0.6,0.6-1.3,0.9-1.9v-0.1c0.5-0.9,0.9-1.7,1.4-2.5c0,0,0.4-0.7,0.7-1.3c0.2-0.3,0.3-0.7,0.5-1h-0.2v-0.2
			l0.1-0.1c0.1-0.1,0.1-0.1,0.2-0.2l0.1-0.1l0.1-0.1c0.1-0.3,0.3-0.7,0.4-1l-1.1,0.2c0,0.1,0,0.2,0,0.3v0.2l-0.2,0.4l-0.1,0.3
			l-0.1,0.3l-0.2,0.5c-0.4,0.8-0.8,1.6-1.2,2.3v0.1c-0.3,0.5-0.5,1-0.8,1.4c-0.2,0.4-0.5,0.9-0.5,0.9l-0.2,0.3l-0.2,0.3
			c-1,1.7-2,3.4-3.1,5.2c-0.6,1-1.2,2-1.7,3c0,0.1,0,0.1,0,0.1l-0.2,0.1l-0.1-0.1c0-0.1,0-0.2,0-0.2c0.3-1,0.8-2.1,1.2-3.1
			c0,0,0.2-0.5,0.3-0.8c0.2-0.4,0.3-0.8,0.5-1.3V162c0.5-1.2,1-2.3,1.5-3.4l0.2-0.4l0.1-0.3c0.6-1.2,1.2-2.3,1.7-3.5
			c0.2-0.6,0.3-1.3,0.7-1.3c0.1-0.2,0.2-0.3,0.3-0.5c-0.1,0-0.2,0.1-0.3,0.1c-0.2,0-0.3,0-0.5,0c0,0.1,0,0.2,0.1,0.3
			c0,0-0.2,1.1-0.6,1.9c-0.1,0.2-0.3,0.5-0.3,0.5c-1.4,2.6-3.2,4.9-5,7.3c-0.6,0.8-1.2,1.7-1.8,2.5c0,0-0.5,0.6-0.8,1.1
			c0,0-0.3,0.5-0.5,0.9c-0.7,1-0.9,1.4-1,1.8c24.7,5,45.3,4,70.4-7c21.2-9.3,16.4-31.4,15.6-35.3C354,122.8,354,113,342.2,116z"/>
		<path class="st0" d="M234,41.3c41.6,8.4,74.8,38.7,85.8,77.7l7.6-2.1c-0.8-2.9-1.7-5.7-2.7-8.4c-8.7-23.4-25.5-44-47.1-57.8
			C263.8,41.9,248,36,231.7,33.2c0.6,1.8,1.2,3.6,1.7,5.6L234,41.3z"/>
		<path class="st0" d="M194.7,157.5l-0.2,0.1h-0.2v0.2c0.2,0.7,0.5,1.3,0.8,1.9c0-0.2,0-0.3-0.1-0.5c0-0.6-0.1-1.1-0.1-1.7v-0.3
			C194.8,157.3,194.8,157.4,194.7,157.5z"/>
		<path class="st0" d="M327.9,170.4c-2.4,0.6-4.7,1.1-7,1.6l-0.3,0.1c-9.2,37.4-38.8,67.3-76.9,78.5l0.6,2.1l1.5,5.2
			c18.2-5.3,35-14.8,48.7-27.4c14.9-13.7,26-31.1,32-50c1.1-3.4,2-6.9,2.7-10.4l-1,0.3L327.9,170.4z"/>
		<path class="st0" d="M99.5,128.8c7.3-40.8,38.4-73.8,79.2-85.4l-1.8-6.2l-0.4-1.1c-5,1.4-10,3.2-14.8,5.2
			c-18.5,7.9-34.8,20.3-47.1,35.7c-12.4,15.6-20.6,34.4-23.5,53.9c1.5-0.5,3.2-0.9,4.9-1.3L99.5,128.8z"/>
		<path class="st0" d="M163.3,157.1c0.2-0.3,0.4-0.5,0.6-0.8c-1.5,0-2.9,0-4.4-0.1h-0.1c-2.6-0.1-5.2-0.3-7.7-0.6c0,0-0.5,0-0.9-0.1
			c-8.4-0.6-16.7-1.7-24.7-3c-13.5-2.2-26.9-5.1-40.2-8.4l-0.2-0.1c-0.6-0.2-1.2-0.4-1.8-0.6v-0.1c0,0,0.3,0,0.5,0
			c0.4,0.1,0.8,0.2,1.2,0.2c0.1,0,0.1,0,0.2,0c6.4,1.5,12.9,3,19.3,4.4c15.2,3.3,30.8,5.5,46.4,6.2c0,0,6.2,0.1,9.3,0
			c0.4-0.1,0.5-0.1,0.7-0.1c0.9,0,1.7-0.1,2.6-0.3c0.1,0,0.1,0,0.2-0.1c0.2-0.1,0.3-0.1,0.4-0.1c1.7,0,3.5-0.4,5.1-0.8
			c0,0,0.3-0.1,0.5-0.2c4.3-1.2,8.3-2.9,12.4-4.2c0.6-0.2,1.3-0.4,1.9-0.7c1.7-1,3.3-2,4.9-3.1c0,0,0.4-0.2,0.7-0.5
			c0.6-0.7,1.2-1.4,1.8-2.1c0.3-0.4,0.3-0.4,0.6-0.6h0.5c-48.9-20.7-84.8-15.6-109.9-6.2c-21.7,8.1-15.5,35.5-14.7,39.3
			c0.8,3.9,3.2,10.4,14.9,7.3c18.3-4.8,49.8-12.1,74.7-17.6C159.8,161.8,161.5,159.4,163.3,157.1z"/>
		<polygon class="st0" points="102.9,128 102.4,128.1 100.7,128.5 		"/>
		<path class="st0" d="M175.6,25.7c0,0-0.2-1-0.3-1.9c-0.1-0.8-0.2-1.7-0.3-2.5c-0.1-1-0.1-2-0.1-3.1l0.1-0.1l0.1-0.1
			c0,0,0.1,0,0.1,0.1c0.1,0.2,0.1,0.4,0.1,0.6c0.1,2.3,0.4,4.6,1,6.8v0.1c0.6,2.4,1.4,4.7,2.2,7c0,0,0.4,1.3,0.8,2.4
			c1.6,4.9,2.9,9.8,4.4,14.9c0,0,0.1,0.4,0.2,0.7c0.4,1.3,0.7,2.6,1.1,3.9c0.9,3,1.9,5.9,2.9,8.8v0.1c0.1,0.3,0.2,0.7,0.3,1
			c0.5,1.6,1.1,3.1,1.5,4.7c0.2,0.7,0.3,1.4,0.4,2c0.3,1.8,0.7,3.5,1.3,5.2c3,8.7,5,17.6,7.3,26.6c1.9,7.5,3.9,14.9,4.6,22.8
			c0.1,1.4,0.2,2.9,0.1,4.3c0,0.1-0.2,1.3-0.7,2.3l-0.2,0.1l-0.1-0.2c0.1-0.7,0-1.5-0.1-2.2c0,0,0-0.2,0-0.5
			c0.1-4.6-0.8-9.1-1.7-13.5c-1.6-8-3.8-15.8-5.8-23.6c-1.4-5.6-2.9-11.2-4.8-16.5c-0.5-1.5-0.8-3-1.1-4.6v-0.1
			c-0.5-2.4-1.4-4.7-2.4-7.3c-1.7-4.5-3.1-9.1-4.5-13.7V50c-0.8-2.9-1.6-5.9-2.4-8.9c-0.8-2.7-1.6-5.3-2.4-7.9
			c9.3,32.7,24.1,86.1,25.1,100.7c0.5-0.3,1-0.5,1.5-0.7c1.4-5.8,5.8-24.7,8.1-48.6c1.5-15.6,2.1-33.3,0.5-50.9
			c1.4-0.8,1.5,21.2,2.5,42.7c0.4,0.5,0.7,1.1,1,1.7l0.2,0.1c0.3,0.1,0.7,0.6,0.5,0.9c0.1,0.3-0.3,0.6-0.6,0.4c0,0,0,0-0.1-0.1
			c-0.1,0-0.2,0-0.3,0c0,0-0.4-0.1-0.7-0.2v0.4c0.4,0.6,0.7,1.3,1.4,1.7c0.1,0,0.1,0.1,0.1,0.1c0.2,0.1,0.3,0.4,0.4,0.6
			c0,0,0.1,0.1,0,0.2c0.2,0.2,0.5,0.4,0.7,0.6l0.2,0.3c0,0.2,0.1,0.4,0.1,0.5h-0.2c-0.1,0-0.3-0.1-0.3-0.1c-0.7-0.5-0.8-0.7-1-0.9
			c-0.5-0.4-0.9-0.9-1.4-1.3v0.1v0.4c0.6,0.8,1.1,1.6,1.7,2.3c0.2,0.2,0.3,0.3,0.5,0.5c0.6,0.6,1.2,1.3,1.5,2.1
			c0.1,0.1,0.1,0.1,0.2,0.2c0.3,0.3,0.6,0.7,0.8,1v0.2h-0.2c-0.4-0.3-0.7-0.6-1.1-0.9c-0.8,0-1.4-0.7-2-1.2
			c-0.4-0.4-0.8-0.8-1.2-1.1v0.3l0.1,0.1c0.2,0.2,0.5,0.5,0.7,0.8c0,0,0.3,0.3,0.4,0.5c0.1,0.1,0.1,0.2,0.2,0.2
			c0.1,0.1,0.2,0.3,0.3,0.4c0.5,0.3,1,0.6,1.4,1c0.3,0.3,0.6,0.5,0.8,0.9c0,0.1,0.1,0.1,0,0.4h0.1c0.1,0,0.1,0,0.2,0L220,90
			l-0.1,0.1c0.1,0.1,0.2,0.2,0.4,0.3c0,0,0.4,0.4,0.8,0.7c0,0,0.5,0.6,0.9,0.9l0.1,0.2l-0.2,0.1c-0.1,0,0,0-0.2-0.1
			c-0.1-0.1-0.3-0.2-0.4-0.3V92h-0.2c-0.3-0.1-0.5-0.3-0.5-0.3c-0.4-0.4-0.8-0.7-1.3-1.1c-0.2-0.2-0.4-0.3-0.7-0.5c0,0,0,0-0.1,0
			c-0.2-0.1-0.4-0.2-0.6-0.4c-0.5-0.4-1.1-0.8-1.6-1.2c-0.2-0.1-0.4-0.3-0.7-0.4v0.2c2.5,2.5,4.4,5.2,6.6,7.8l0.1,0.3l-0.1,0.2
			l-0.3,0.1l-0.2-0.1c-0.1-0.1-0.1-0.2-0.2-0.2c-0.9-0.8-1.9-1.6-2.8-2.4c-0.2-0.2-0.4-0.3-0.6-0.5H218c-0.1,0-0.1-0.1-0.2-0.1
			c-0.3-0.2-0.6-0.3-0.9-0.5c0.5,0.5,1,1,1.4,1.5c0.2,0.2,0.4,0.4,0.5,0.5c0,0,0,0,0,0.1c1.2,1.2,2.3,2.4,3.4,3.6
			c0,0,0.1,0.1,0.2,0.3l0.2,0.2c0.1,0.1,0.3,0.3,0.3,0.3c0.1,0.1,0.2,0.2,0.3,0.3c0.2,0.3,0.5,0.6,0.5,0.6l0.1,0.1v0.1h-0.2
			c-0.3-0.2-0.7-0.5-1-0.7l-0.4-0.3c-0.1-0.1-0.1-0.1-0.2-0.2h-0.2c-0.3-0.3-0.5-0.6-0.8-0.9l-0.1-0.1c-1-0.8-2.1-1.6-3-2.5
			c-0.2-0.2-0.3-0.3-0.5-0.5c-0.3-0.2-0.6-0.4-0.9-0.6c0.1,0.1,0.3,0.3,0.4,0.4c0.1,0.1,0.3,0.3,0.4,0.4c0.2,0.2,0.5,0.6,0.5,0.6
			c0,0.1,0.1,0.2,0.1,0.3c0.1,0.2,0.3,0.4,0.4,0.6l0.1,0.1c0.2,0.2,0.3,0.4,0.5,0.7c0.7,0.8,1.4,1.7,2.1,2.5l0.3,0.4
			c0.1,0.2,0.3,0.4,0.4,0.6c0.1,0.1,0.1,0.1,0.2,0.2v0.1l0.1,0.1v0.1c0.2,0.2,0.4,0.4,0.3,0.5c0.6,0.5,1.2,1,1.7,1.6l0.2,0.4
			c0,0.1,0.1,0.3,0,0.3c-0.2-0.2-0.4-0.3-0.6-0.5c-0.8-0.9-1.7-1.6-2.5-2.4c-0.1,0-0.1-0.1-0.2-0.1c-0.3-0.1-0.5-0.4-0.7-0.6
			c-0.1-0.1-0.3-0.2-0.4-0.3l-0.4-0.3c0,0-0.1,0-0.1-0.1c0,0,0,0-0.1-0.1c-0.2-0.2-0.5-0.4-0.7-0.6l0.1,0.1l0.1,0.2c0,0,0,0,0,0.1
			c0.2,0.2,0.4,0.3,0.5,0.5c0.1,0.1,0.2,0.2,0.3,0.3c0.1,0.1,0.3,0.3,0.4,0.4c1.2,1.4,2.3,2.8,3.6,4.1c0,0,0.3,0.4,0.6,0.7l0.1,0.2
			c0,0-0.1,0.1-0.1,0.2l0.1,0.1c0.5,0.7,1,1.4,1.5,2.1v0.3h-0.3c-0.5-0.6-1.1-1.2-1.6-1.9l-0.2-0.1c-0.2-0.2-0.3-0.4-0.4-0.5
			c-0.3-0.3-0.7-0.7-1-1c-0.1-0.1-0.1-0.1-0.2-0.2c0,0,0,0-0.1-0.1c-0.3-0.2-0.6-0.4-0.9-0.7c-0.3-0.2-0.5-0.5-0.8-0.7
			c0.5,0.7,1,1.4,1.5,2.2l0.2,0.4c0.3,0.3,0.5,0.6,0.8,0.9l0.1,0.1c0.4,0.5,0.8,0.9,1.2,1.3c0.6,0.7,1.2,1.5,1.8,2.3
			c0.6,0,0.6,0.1,0.7,0.2c0.1-0.4,0.2-0.7,0.3-1.1c12.3-40.1,7.4-61-2.6-84.5c-9.7-23-36.9-17.8-40.4-16.8
			c-3.9,1.1-12.3,4.6-9.1,15.9c0.7,2.6,1.5,5.4,2.4,8.3C176.5,30.5,176,28.1,175.6,25.7z M176.4,15c0-0.5,0.1-0.9,0.3-1.3
			c0,0,0.2-0.6,0.5-0.9c0.5-0.9,1.1-1.8,2.1-1.8c0,0,0.1,0.1,0.2,0.1l-0.1,0.2c0,0-0.6,0.1-0.9,0.4s-0.6,0.6-0.8,1
			c0,0,0.1,0.1,0.1,0.2c0,0.3-0.3,0.4-0.5,0.6c-0.1,0.1-0.4,0.8-0.6,1.3c-0.1,0.2-0.2,0.6-0.2,0.6c-0.1,0.1-0.2,0-0.2-0.1
			C176.4,15.2,176.4,15.1,176.4,15z"/>
		<path class="st0" d="M218.4,107.2L218.4,107.2c0.4,0.5,0.6,0.8,0.9,1.2l0.1,0.2c1.4,1.9,2.8,3.9,4.1,5.9c0.2,0.3,0.3,0.6,0.5,0.9
			c0.3-0.3,0.5-0.6,0.8-1c-1.5-1.7-3-3.4-4.5-5.2c0,0-0.2-0.3-0.4-0.5c-0.7-0.9-1.5-1.7-2.2-2.6
			C217.9,106.5,218.2,106.8,218.4,107.2z"/>
		<path class="st0" d="M206.9,160.6c0.9,0.4,1.7,0.7,2.7,0.8c0.9,0.2,1.9,0.3,2.8,0.3c0,0,0.6,0.1,1,0.2l0.5-0.2
			c1-0.5,2.1-0.8,3.2-1.3c2-0.9,3.9-2.1,5.1-3.9c0.3-0.4,0.5-0.9,0.7-1.3c0.1-0.4,0.2-0.9,0.4-1.3c0,0,0.1-0.2,0.2-0.3
			c0.2-0.9,0.4-1.9,0.4-2.8c0-0.4-0.1-0.9-0.2-1.3c-0.1-0.5-0.3-1.3-0.3-2c0-0.4,0-0.8-0.2-1.2c-0.3-0.6-0.6-1.1-0.8-1.7v-0.1
			c-0.3-0.6-0.6-1.2-0.8-1.8c0,0-0.1-0.3-0.2-0.5c0-0.1-0.1-0.2-0.1-0.2c-0.1-0.2-0.3-0.3-0.4-0.5c0,0-0.2-0.3-0.4-0.6
			c-0.5-0.7-1.1-1.3-1.7-1.9c-2.1-1.7-5-2.3-7.7-2.6c0,0,0,0-0.1,0c0,0,0,0,0,0.1l-0.1,0.1l-0.1-0.1v-0.1c-0.1,0-0.3,0-0.4-0.1
			c-0.3,0.1-0.6,0.3-0.9,0.3l-0.1-0.1l0.2-0.1c0.1,0,0.2,0,0.2-0.1l-0.1-0.1c0,0,0.1-0.1,0.2-0.1c0.1,0,0.1,0,0.2,0
			c0.2-0.1,0.5-0.2,0.7,0c0.1,0,0.2,0,0.2,0s0,0,0.1,0c1.8,0,3.7,0.3,5.4,0.9c1-0.5,1.9-1.3,2.8-1.9c0.3-0.2,0.5-0.4,0.8-0.6
			l0.4-0.3c0,0,0-0.1,0.1-0.1c-2.6-1.2-5.5-1.9-8.6-1.9c-6.6,0-12.4,3.2-15.9,8v0.1c0,0.2,0,0.4,0,0.4c0,0.1,0,0.3,0,0.3
			c-0.1,0.3-0.1,0.4-0.2,0.6c-0.2,0.5-0.4,0.9-0.7,1.4v0.1c-0.8,2.2-1.2,4.6-1.5,6.9c0.5-0.4,1-0.7,1.5-0.9c0.5-0.5,1-1,1.4-1.4
			c0-0.1,0.1-0.1,0.1-0.2c0-0.2,0.1-0.5,0.2-0.7v-0.1c0.3-0.7,0.6-1.3,1-2c0.2-0.3,0.5-0.7,0.7-1c1-2.1,2.6-3.7,4.4-5
			c0.3-0.3,0.7-0.6,1.1-0.8c0.1,0,0.1-0.1,0.2-0.1c0.5-0.3,1-0.6,1.5-0.9c-0.3,0.3-0.7,0.5-1,0.8l0.1,0.1l-0.1,0.1
			c-0.1,0-0.3,0-0.4,0.1c-0.6,0.5-1.3,1-1.8,1.6c-0.3,0.3-0.6,0.6-0.9,0.9c-0.1,0.1-0.2,0.3-0.3,0.4c-0.5,0.6-1,1.3-1.4,2
			c0,0-0.3,0.5-0.5,0.9c0,0.1-0.1,0.3-0.1,0.4v0.1c-0.1,0.2-0.1,0.4-0.2,0.7c0,0-0.2,0.9-0.3,1.4c0,0.2-0.1,0.5-0.1,0.5
			c-0.3,1.2-0.4,2.5-0.3,3.7l0.2,0.2l-0.1,0.5c0,0.1,0,0.2,0.1,0.3c0.1,0.5,0.3,0.9,0.5,1.3l0.2,0.2l0.2,0.3c0,0,0,0,0,0.1
			c0.1,0.1,0.2,0.2,0.3,0.3l0.1,0.1c0,0,0,0,0,0.1c0.2,0.3,0.4,0.5,0.7,0.8c0,0.1,0.1,0.1,0.1,0.2c0.2,0.4,0.5,0.7,0.7,1.1
			c0,0,0.3,0.6,0.5,1c0.1,0.1,0.2,0.3,0.3,0.4c0.2,0.2,0.5,0.4,0.7,0.6c0.8,0.6,1.8,1.1,2.7,1.7C206.1,160,206.5,160.3,206.9,160.6z
			"/>
		<path class="st0" d="M203.7,167.4c0.1,0,0.2-0.1,0.3-0.1c0-0.6,0.1-1.1,0.1-1.7c0-0.6-0.1-1.1-0.1-1.7c-0.1-0.1-0.2-0.1-0.3-0.2
			C203.7,164.9,203.7,166.1,203.7,167.4z"/>
		<path class="st0" d="M226.9,120.4l-1.1,2.8C226.2,122.3,226.5,121.3,226.9,120.4z"/>
		<path class="st0" d="M223.3,109.1c-0.3-0.3-0.6-0.6-0.8-0.9c0,0-0.7-0.8-1.1-1.2l-0.4-0.4c-0.2-0.2-0.4-0.3-0.5-0.5
			c0,0-0.3-0.3-0.4-0.4c-0.2-0.2-0.4-0.5-0.7-0.7c1.1,1.4,2.2,2.8,3.3,4.3c0.6,0.8,1.1,1.5,1.7,2.3l0.1,0.1c0.3,0.4,0.5,0.8,0.8,1.2
			c0.1,0.1,0.1,0.3,0.2,0.4c0.1-0.4,0.3-0.8,0.6-1.2c-0.2-0.1-0.6-0.4-0.6-0.4C224.7,110.9,224.1,109.9,223.3,109.1z"/>
		<path class="st0" d="M203.2,168.5c-0.1,0-0.1,0-0.2-0.1v0.3l-0.2,0.4c0.1,0,0.2,0,0.2,0C203,169,203.1,168.8,203.2,168.5z"/>
		<path class="st0" d="M222.8,131.5l-0.1,0.1L222.8,131.5L222.8,131.5c-0.3,0.5-0.5,1.1-0.7,1.6c0,0,0.1,0,0.1,0.1h0.1
			c0.6,0.3,1.1,0.6,1.7,1l70.3-49.8c-0.6-0.8-1.2-1.5-1.9-2.2L222.8,131.5z"/>
		<path class="st0" d="M186.4,218.7l0.3-1.4l-26.9,19c1,0.5,2,1,2.9,1.5l23.5-16.7L186.4,218.7z"/>
		<path class="st0" d="M186.5,239l-0.1-0.7l-0.2-2.6l-10.5,7.4c1.2,0.4,2.3,0.8,3.5,1.1L186.5,239z"/>
		<path class="st0" d="M167.9,240.2l18-12.8c0.1-1.3,0.2-2.5,0.2-3.7l-21.3,15.1l2.2,1L167.9,240.2z"/>
		<polygon class="st0" points="173.5,242.2 186.2,233.2 186.2,232.4 186,229.8 170.2,241 171.9,241.6 		"/>
		<path class="st0" d="M201.9,166v0.7c0.1-0.1,0.2,0,0.3,0c0.1-1.3,0.2-2.6,0.3-3.9c-0.2-0.1-0.4-0.3-0.6-0.4c0,1,0,1.9,0,2.9V166z"
			/>
		<path class="st0" d="M200.9,159C200.9,159.1,200.9,159.1,200.9,159c0.7,0.7,1.5,1.3,2.3,1.7C202.4,160.2,201.6,159.7,200.9,159z"
			/>
		<path class="st0" d="M202.9,163.1c0,0.9-0.1,1.7-0.1,2.6c0,0,0,0.7-0.1,1.3l0.2,0.1v-2.5C202.9,164.1,202.9,163.6,202.9,163.1z"/>
		<path class="st0" d="M229.4,142.6c-0.5-0.2-1.1-0.5-1.6-0.7l0,0c-0.1,0.1-0.2,0.1-0.3,0.2c0.7,0.3,1.3,0.5,2,0.7
			C229.4,142.7,229.4,142.6,229.4,142.6z"/>
		<path class="st0" d="M226.3,141.4c0.1,0.1,0.1,0,0.2,0C226.4,141.4,226.4,141.4,226.3,141.4L226.3,141.4L226.3,141.4z"/>
		<path class="st0" d="M227.6,139.8c-0.3,0.2-0.7,0.3-0.7,0.3c-0.2,0.1-0.5,0.2-0.5,0.2c-0.2,0.1-0.4,0.1-0.4,0.1
			c-0.4,0.1-0.8,0.3-1.2,0.4c0.1,0,0.2,0.1,0.2,0.1h0.2c0.2,0.1,0.3,0.2,0.3,0.3c0.2,0,0.5,0.1,0.7,0.2l0,0c-0.1,0-0.2-0.1-0.3-0.1
			s-0.1,0-0.2,0h0.1c0,0,0,0,0.1,0s0.2,0.1,0.3,0.1c0.5-0.3,1-0.6,1.6-0.8C228,140.2,227.8,140,227.6,139.8z"/>
		<polygon class="st0" points="224.7,134.7 224.8,134.8 225,134.9 		"/>
		<path class="st0" d="M228.7,141.4c-0.3,0.1-0.6,0.3-0.9,0.5l0,0c0.5,0.2,1.1,0.4,1.6,0.7C229.2,142.2,229,141.8,228.7,141.4z"/>
		<path class="st0" d="M295.5,86l-69.8,49.4c0.8,0.6,1.6,1.3,2.2,2l69.4-49.1C296.7,87.5,296.1,86.7,295.5,86z"/>
		<path class="st0" d="M222.3,139.7l1.7,0.8c0.1-0.1,0.2-0.1,0.3-0.2c0.7-0.4,1.4-0.8,2.1-1.1l0.5-0.2c0,0,0,0,0.1,0
			c-0.2-0.3-0.5-0.6-0.8-0.9c-0.3,0.2-0.4,0.3-0.7,0.4c-0.5,0.3-1.1,0.5-1.7,0.7c0,0-0.8,0.2-1.2,0.4
			C222.5,139.6,222.4,139.7,222.3,139.7z"/>
		<path class="st0" d="M230.2,141.6c-0.1-0.2,0,0-0.1-0.1l-0.2-0.1c-0.3,0-0.6,0.1-0.9,0.1c0.2,0.4,0.4,0.8,0.6,1.2
			c0.1,0.1,0.2,0.1,0.4,0.2c0.2,0.1,0.4,0.1,0.6,0.2c0-0.2-0.1-0.4-0.1-0.6C230.4,142.2,230.3,141.9,230.2,141.6z"/>
		<path class="st0" d="M224.9,144c0-0.1,0-0.2,0-0.2c-0.1-0.1-0.3-0.2-0.5-0.2C224.6,143.7,224.7,143.9,224.9,144z"/>
		<path class="st0" d="M224.7,142.2c-0.1-0.2-0.1-0.4-0.2-0.5c0,0,0-0.1-0.1-0.2l-0.8-0.4c-0.1,0-0.3,0.1-0.4,0.1
			c-0.1,0-0.3,0-0.3,0l-0.1-0.1c0.1,0,0.3,0,0.5-0.2l-1.3-0.6c0.3,0.3,0.6,0.7,0.8,1L224.7,142.2z"/>
		<path class="st0" d="M195.8,155.8c-0.2,0.4-0.5,0.8-0.7,1.2c0.2,0.1,0.4,0.2,0.5,0.2C195.7,156.7,195.7,156.3,195.8,155.8z"/>
		<path class="st0" d="M223.5,142.4c0.1,0.1,0.1,0.2,0.1,0.3c0,0,0.1,0,0.1,0.1c0,0,0,0,0-0.1c0.4,0.2,0.7,0.4,1.1,0.6
			c0.1-0.1,0.1-0.2,0.1-0.3L223.5,142.4z"/>
		<path class="st0" d="M223.7,142.8c0.1,0.2,0.2,0.3,0.2,0.4h0.1c0.1,0.1,0.3,0.2,0.4,0.3c0.2,0.1,0.3,0.1,0.5,0.2
			c0-0.1,0-0.2,0-0.4h-0.1l0,0C224.4,143.1,224.1,142.9,223.7,142.8z"/>
		<polygon class="st0" points="198.9,174.6 200.1,171.6 134.7,217.9 135.7,218.9 136.8,220 198.2,176.5 		"/>
		<path class="st0" d="M196.1,157.5c0.2,0.1,0.5,0.2,0.8,0.2c0.1,0.1,0.2,0.2,0.3,0.3c-0.3-0.5-0.5-1-0.7-1.4L196.1,157.5z"/>
		<path class="st0" d="M197.1,160c-0.1,0.7-0.2,1.5-0.1,2.2l-0.1,0.1c0.2,0.2,0.4,0.5,0.7,0.8c0-0.2,0-0.4,0-0.6
			c0.1-1.1,0.3-2.1,0.5-3.2c0-0.1-0.1-0.1-0.1-0.2c-0.2-0.2-0.4-0.3-0.7-0.5C197.2,159,197.2,159.5,197.1,160
			C197.1,159.9,197.1,159.9,197.1,160z"/>
		<path class="st0" d="M197,179.9l-58.7,41.5l1,0.9l1.2,1l54.6-38.7C195.8,183.1,196.4,181.5,197,179.9z"/>
		<path class="st0" d="M185.4,245.8l1.8-1.3c-0.1-1-0.3-2.1-0.4-3.2l-5.1,3.6l2.5,0.6L185.4,245.8z"/>
		<path class="st0" d="M195.9,153.1c-0.8,1-1.5,2.1-2,3.2C194.6,155.3,195.3,154.2,195.9,153.1z"/>
		<path class="st0" d="M195.5,158.7c0.1,0.7,0.2,1.4,0.4,2.1c0,0,0.1,0.3,0.2,0.6c0.1,0.1,0.1,0.1,0.2,0.2c-0.1-0.2,0-0.2,0,0
			c0.1-1.1,0.3-2.2,0.5-3.3c-0.3-0.2-0.6-0.3-0.9-0.5L195.5,158.7z"/>
		<path class="st0" d="M197.4,154.5l-0.2,0.6l0.2,0.4c0-0.2,0-0.4,0.1-0.5L197.4,154.5z"/>
		<path class="st0" d="M194,157.3c0.1,0,0.2-0.1,0.1-0.1C194.1,157.2,193.9,157.3,194,157.3z"/>
		<path class="st0" d="M197.4,155.8c0-0.2,0-0.2,0-0.3c-0.1-0.1-0.1-0.1-0.2-0.2C197.3,155.5,197.3,155.6,197.4,155.8z"/>
		<path class="st0" d="M198.8,166.5l-67.6,47.8l1,1l1.1,1.1l68.1-48.2C200.5,167.8,199.6,167.2,198.8,166.5z"/>
		<path class="st0" d="M191.5,195.8l-45.2,32l1,0.7l1.5,1.1l41.4-29.3C190.6,198.8,191,197.3,191.5,195.8z"/>
		<path class="st0" d="M195.6,157.9c0-0.1,0-0.2,0-0.3c0,0-0.1,0-0.1-0.1C195.5,157.7,195.5,157.8,195.6,157.9z"/>
		<polygon class="st0" points="188.7,205.6 189.3,203.4 150.5,230.9 151.3,231.5 153.1,232.6 188.2,207.7 		"/>
		<path class="st0" d="M155.1,233.6l0.6,0.4l2.2,1.2l29.2-20.7c0.2-1.3,0.4-2.6,0.7-4L155.1,233.6z"/>
		<path class="st0" d="M194.1,188l-51.9,36.7l1,0.8l1.4,1l47.9-33.9C193,191.1,193.5,189.5,194.1,188z"/>
	</g>
</g>
<path class="st0" d="M247.9,337.6c4.4,0,8-1.3,10.8-3.8s4.2-6.5,4.2-12c0-5.1-1.1-8.9-3.3-11.2c-2.2-2.3-5.4-3.5-9.5-3.5h-30.9v5.5
	l4.8,1.9v31.7l-4.8,1.9v5.5H247l0.1-5.7l-7.9-2.4v-7.9H247.9z M239.1,330.2V315l5.3-0.7c3,0,4.5,2.8,4.5,8.6c0,2.2-0.2,3.8-0.7,4.8
	c-0.5,1.1-1.2,1.7-2,2s-2,0.4-3.6,0.4v0.1L239.1,330.2L239.1,330.2z"/>
<path class="st0" d="M130.1,335.7l5,12.5l2.1,5.4h17.6v-5.4l-4.3-2l-3.2-5.2c-1.8-3-3.2-5.3-4.4-7.1v-0.5c2.2-1.3,3.9-3.1,5.1-5.3
	c1.3-2.2,1.9-4.8,1.9-7.9c0-4.6-1.1-8-3.3-10c-2.2-2.1-5.4-3.1-9.5-3.1h-30.3v5.5l4.8,1.9v31.7l-4.8,1.9v5.5h24.6l0.1-5.6l-4.8-2.4
	v-9.9H130.1z M126.6,328.5V315l4.4-0.7c1.2,0,2.2,0.7,2.8,2s0.9,3.3,0.9,5.8c0,1.9-0.2,3.4-0.6,4.3c-0.4,0.9-1,1.5-1.7,1.7
	s-1.8,0.3-3.2,0.3v0.1L126.6,328.5L126.6,328.5z"/>
<polygon class="st0" points="265.3,348.2 265.3,353.7 305.9,353.7 305.6,338.6 298.6,338.6 297.2,347 285.2,345.8 285.2,334 
	295.7,333.5 295.7,326.4 285.2,326 285.2,315 296.4,313.9 297.4,322 304.4,322 305.5,307.2 265.3,307.2 265.3,312.7 270.1,314.6 
	270.1,346.3 "/>
<path class="st0" d="M179.7,335.7l5,12.5l2.1,5.4h17.6v-5.4l-4.3-2l-3.2-5.2c-1.8-3-3.2-5.3-4.4-7.1v-0.5c2.2-1.3,3.9-3.1,5.1-5.3
	c1.3-2.2,1.9-4.8,1.9-7.9c0-4.6-1.1-8-3.3-10c-2.2-2.1-5.4-3.1-9.5-3.1h-30.3v5.5l4.8,1.9v31.7l-4.8,1.9v5.5H181l0.1-5.6l-4.8-2.4
	v-9.9H179.7z M176.2,328.5V315l4.4-0.7c1.2,0,2.2,0.7,2.8,2s0.9,3.3,0.9,5.8c0,1.9-0.2,3.4-0.6,4.3c-0.4,0.9-1,1.5-1.7,1.7
	s-1.8,0.3-3.2,0.3l0,0v0.1L176.2,328.5L176.2,328.5z"/>
<path class="st0" d="M82.1,354.6c1.1,0,3-0.6,5.6-1.7s5.2-2.4,7.9-4c2.7-1.6,4.6-3,5.8-4.2c1.7-4.7,2.6-9.9,2.6-15.7
	c0-8-1.9-13.8-5.9-17.4c-4-3.7-10-5.5-18.1-5.5c-1.2,0-3.1,0.6-5.7,1.8c-2.6,1.2-5.2,2.6-7.8,4.3s-4.5,3.2-5.8,4.6
	c-1.7,4.5-2.6,9.5-2.6,15c0,7.9,1.9,13.6,5.9,17.3S74,354.6,82.1,354.6z M74.6,319c0.4-3.2,0.9-4.8,1.5-5.1c0.8-0.4,2.3-0.6,4.4-0.6
	c2.2,0,3.9,0.6,5,1.9s1.9,3.1,2.2,5.5c0.3,2.4,0.5,5.7,0.5,9.8c0,6.3-0.3,11.5-0.9,15.5c-0.2,0.1-1.1,0.4-2.7,0.8
	c-1.5,0.4-2.5,0.6-3,0.6c-2,0-3.6-0.5-4.7-1.4c-1-1.1-1.8-2.8-2.3-5.3s-0.7-6-0.7-10.4S74.2,322.1,74.6,319z"/>
</svg>
